{
.appVersion = "930";
DisplayStrings = (
"BRING IT BACK THE OTHER WAY."
);
copyright = "Copyright 2016 Jeremy Tribby. SIL OFL License v1.1.";
date = "2016-07-12 00:27:02 +0000";
designer = "Jeremy Tribby";
designerURL = "http://tribby.com/";
familyName = Barlow;
featurePrefixes = (
{
automatic = 1;
code = "languagesystem DFLT dflt;\012";
name = Languagesystems;
}
);
features = (
{
automatic = 1;
code = "sub hyphen hyphen by hyphen_hyphen.liga;\012";
name = liga;
}
);
fontMaster = (
{
alignmentZones = (
"{800, 16}",
"{700, 10}",
"{500, 6}",
"{0, -10}",
"{-200, -3}"
);
ascender = 800;
capHeight = 700;
customParameters = (
{
name = paramArea;
value = "488";
},
{
name = paramDepth;
value = "16";
},
{
name = paramOver;
value = "0";
}
);
descender = -200;
horizontalStems = (
22,
22
);
id = "262880E7-CFE1-4BDA-902E-E24798F3240A";
userData = {
GSCornerRadius = 8;
GSOffsetHorizontal = 100;
GSOffsetMakeStroke = 1;
GSOffsetVertical = 90;
noodleExtremesAndInflections = 1;
noodleRemoveOverlap = 1;
noodleThickness = "22.0";
};
verticalStems = (
21,
21
);
visible = 1;
weight = Light;
weightValue = 23;
xHeight = 500;
},
{
alignmentZones = (
"{800, 16}",
"{700, 9}",
"{500, 8}",
"{0, -9}",
"{-200, -10}"
);
ascender = 800;
capHeight = 700;
customParameters = (
{
name = paramArea;
value = "488";
},
{
name = paramDepth;
value = "16";
},
{
name = paramOver;
value = "0";
}
);
descender = -200;
horizontalStems = (
188,
188
);
id = "4E2227F3-52E4-4048-A8EE-327B486EF0A4";
userData = {
GSCornerRadius = 8;
GSOffsetHorizontal = 68;
GSOffsetMakeStroke = 1;
GSOffsetVertical = 68;
noodleExtremesAndInflections = 1;
noodleRemoveOverlap = 1;
noodleThickness = "22.0";
};
verticalStems = (
166,
150
);
visible = 1;
weight = Bold;
weightValue = 188;
xHeight = 500;
}
);
glyphs = (
{
color = 1;
glyphname = A;
lastChange = "2016-10-23 07:19:27 +0000";
layers = (
{
layerId = "262880E7-CFE1-4BDA-902E-E24798F3240A";
paths = (
{
closed = 1;
nodes = (
"83 0 LINE",
"273 658 LINE",
"463 0 LINE",
"485 0 LINE",
"284 700 LINE",
"261 700 LINE",
"60 0 LINE"
);
},
{
closed = 1;
nodes = (
"430 145 LINE",
"430 166 LINE",
"120 166 LINE",
"120 145 LINE"
);
}
);
width = 485;
},
{
layerId = "4E2227F3-52E4-4048-A8EE-327B486EF0A4";
paths = (
{
closed = 1;
nodes = (
"188 0 LINE",
"274 449 LINE",
"346 0 LINE",
"534 0 LINE",
"370 700 LINE",
"164 700 LINE",
"0 0 LINE"
);
},
{
closed = 1;
nodes = (
"407 100 LINE",
"407 252 LINE",
"128 252 LINE",
"128 100 LINE"
);
}
);
width = 534;
}
);
unicode = 0041;
},
{
color = 1;
glyphname = B;
lastChange = "2016-10-23 07:15:33 +0000";
layers = (
{
layerId = "262880E7-CFE1-4BDA-902E-E24798F3240A";
paths = (
{
closed = 1;
nodes = (
"130 679 LINE",
"288 679 LINE SMOOTH",
"385 679 OFFCURVE",
"449 617 OFFCURVE",
"449 523 CURVE SMOOTH",
"449 432 OFFCURVE",
"385 372 OFFCURVE",
"288 372 CURVE SMOOTH",
"130 372 LINE"
);
},
{
closed = 1;
nodes = (
"288 351 LINE SMOOTH",
"398 351 OFFCURVE",
"471 420 OFFCURVE",
"471 523 CURVE SMOOTH",
"471 629 OFFCURVE",
"398 700 OFFCURVE",
"288 700 CURVE SMOOTH",
"108 700 LINE",
"108 351 LINE"
);
},
{
closed = 1;
nodes = (
"130 351 LINE",
"288 351 LINE SMOOTH",
"385 351 OFFCURVE",
"449 284 OFFCURVE",
"449 186 CURVE SMOOTH",
"449 88 OFFCURVE",
"385 22 OFFCURVE",
"288 22 CURVE SMOOTH",
"130 22 LINE"
);
},
{
closed = 1;
nodes = (
"288 0 LINE SMOOTH",
"398 0 OFFCURVE",
"471 74 OFFCURVE",
"471 186 CURVE SMOOTH",
"471 298 OFFCURVE",
"398 372 OFFCURVE",
"288 372 CURVE SMOOTH",
"108 372 LINE",
"108 0 LINE"
);
}
);
width = 495;
},
{
layerId = "4E2227F3-52E4-4048-A8EE-327B486EF0A4";
paths = (
{
closed = 1;
nodes = (
"215 534 LINE",
"245 534 LINE",
"272 534 OFFCURVE",
"290 516 OFFCURVE",
"290 479 CURVE SMOOTH",
"290 442 OFFCURVE",
"272 411 OFFCURVE",
"245 411 CURVE",
"215 411 LINE"
);
},
{
closed = 1;
nodes = (
"199 312 LINE SMOOTH",
"341 312 OFFCURVE",
"478 387 OFFCURVE",
"478 503 CURVE SMOOTH",
"478 620 OFFCURVE",
"382 700 OFFCURVE",
"237 700 CURVE",
"27 700 LINE",
"27 312 LINE"
);
},
{
closed = 1;
nodes = (
"215 296 LINE",
"252 296 LINE SMOOTH",
"283 296 OFFCURVE",
"303 264 OFFCURVE",
"303 225 CURVE SMOOTH",
"303 186 OFFCURVE",
"282 166 OFFCURVE",
"251 166 CURVE SMOOTH",
"215 166 LINE"
);
},
{
closed = 1;
nodes = (
"266 0 LINE SMOOTH",
"401 0 OFFCURVE",
"491 83 OFFCURVE",
"491 204 CURVE SMOOTH",
"491 332 OFFCURVE",
"349 411 OFFCURVE",
"199 411 CURVE",
"27 411 LINE",
"27 0 LINE"
);
}
);
width = 497;
},
{
associatedMasterId = "4E2227F3-52E4-4048-A8EE-327B486EF0A4";
layerId = "61038666-3371-4C14-8B39-94AF9622E2C7";
name = "DemiBold{110,100}";
paths = (
{
closed = 1;
nodes = (
"160 603 LINE",
"251 603 LINE SMOOTH",
"310 603 OFFCURVE",
"350 563 OFFCURVE",
"350 503 CURVE SMOOTH",
"350 441 OFFCURVE",
"310 399 OFFCURVE",
"251 399 CURVE SMOOTH",
"160 399 LINE"
);
},
{
closed = 1;
nodes = (
"226 324 LINE SMOOTH",
"366 324 OFFCURVE",
"460 397 OFFCURVE",
"460 512 CURVE SMOOTH",
"460 625 OFFCURVE",
"374 700 OFFCURVE",
"246 700 CURVE SMOOTH",
"50 700 LINE",
"50 324 LINE"
);
},
{
closed = 1;
nodes = (
"160 316 LINE",
"254 316 LINE SMOOTH",
"316 316 OFFCURVE",
"357 268 OFFCURVE",
"357 204 CURVE SMOOTH",
"357 140 OFFCURVE",
"316 98 OFFCURVE",
"254 98 CURVE SMOOTH",
"160 98 LINE"
);
},
{
closed = 1;
nodes = (
"262 0 LINE SMOOTH",
"385 0 OFFCURVE",
"467 78 OFFCURVE",
"467 195 CURVE SMOOTH",
"467 322 OFFCURVE",
"371 401 OFFCURVE",
"226 399 CURVE SMOOTH",
"50 397 LINE",
"50 0 LINE"
);
}
);
width = 496;
}
);
unicode = 0042;
},
{
color = 1;
glyphname = C;
lastChange = "2016-10-23 07:25:13 +0000";
layers = (
{
layerId = "262880E7-CFE1-4BDA-902E-E24798F3240A";
paths = (
{
closed = 1;
nodes = (
"337 -9 OFFCURVE",
"406 56 OFFCURVE",
"406 154 CURVE SMOOTH",
"406 154 LINE",
"384 154 LINE",
"384 152 LINE SMOOTH",
"384 68 OFFCURVE",
"324 12 OFFCURVE",
"233 12 CURVE SMOOTH",
"142 12 OFFCURVE",
"82 68 OFFCURVE",
"82 152 CURVE SMOOTH",
"82 548 LINE SMOOTH",
"82 632 OFFCURVE",
"142 688 OFFCURVE",
"233 688 CURVE SMOOTH",
"324 688 OFFCURVE",
"384 632 OFFCURVE",
"384 548 CURVE SMOOTH",
"384 545 LINE",
"406 545 LINE",
"406 546 LINE SMOOTH",
"406 644 OFFCURVE",
"337 709 OFFCURVE",
"233 709 CURVE SMOOTH",
"129 709 OFFCURVE",
"60 644 OFFCURVE",
"60 546 CURVE SMOOTH",
"60 154 LINE SMOOTH",
"60 56 OFFCURVE",
"129 -9 OFFCURVE",
"233 -9 CURVE SMOOTH"
);
}
);
width = 430;
},
{
layerId = "4E2227F3-52E4-4048-A8EE-327B486EF0A4";
paths = (
{
closed = 1;
nodes = (
"387 -8 OFFCURVE",
"479 72 OFFCURVE",
"479 192 CURVE SMOOTH",
"479 264 LINE",
"291 264 LINE",
"291 196 LINE SMOOTH",
"291 171 OFFCURVE",
"274 152 OFFCURVE",
"247 152 CURVE SMOOTH",
"220 152 OFFCURVE",
"203 171 OFFCURVE",
"203 196 CURVE SMOOTH",
"203 504 LINE SMOOTH",
"203 529 OFFCURVE",
"220 548 OFFCURVE",
"247 548 CURVE SMOOTH",
"274 548 OFFCURVE",
"291 529 OFFCURVE",
"291 504 CURVE SMOOTH",
"291 436 LINE",
"479 436 LINE",
"479 508 LINE SMOOTH",
"479 628 OFFCURVE",
"387 708 OFFCURVE",
"247 708 CURVE SMOOTH",
"107 708 OFFCURVE",
"15 628 OFFCURVE",
"15 508 CURVE SMOOTH",
"15 192 LINE SMOOTH",
"15 72 OFFCURVE",
"107 -8 OFFCURVE",
"247 -8 CURVE SMOOTH"
);
}
);
width = 485;
}
);
unicode = 0043;
},
{
color = 1;
glyphname = D;
lastChange = "2016-10-23 07:15:33 +0000";
layers = (
{
layerId = "262880E7-CFE1-4BDA-902E-E24798F3240A";
paths = (
{
closed = 1;
nodes = (
"279 0 LINE SMOOTH",
"386 0 OFFCURVE",
"452 68 OFFCURVE",
"452 180 CURVE SMOOTH",
"452 520 LINE SMOOTH",
"452 632 OFFCURVE",
"386 700 OFFCURVE",
"279 700 CURVE SMOOTH",
"108 700 LINE",
"108 0 LINE"
);
},
{
closed = 1;
nodes = (
"130 679 LINE",
"281 679 LINE SMOOTH",
"373 679 OFFCURVE",
"430 619 OFFCURVE",
"430 520 CURVE SMOOTH",
"430 179 LINE SMOOTH",
"430 81 OFFCURVE",
"373 21 OFFCURVE",
"281 21 CURVE SMOOTH",
"130 21 LINE"
);
}
);
width = 512;
},
{
layerId = "4E2227F3-52E4-4048-A8EE-327B486EF0A4";
paths = (
{
closed = 1;
nodes = (
"262 0 LINE SMOOTH",
"397 0 OFFCURVE",
"487 80 OFFCURVE",
"487 200 CURVE SMOOTH",
"487 500 LINE SMOOTH",
"487 620 OFFCURVE",
"397 700 OFFCURVE",
"262 700 CURVE SMOOTH",
"27 700 LINE",
"27 0 LINE"
);
},
{
closed = 1;
nodes = (
"215 534 LINE",
"247 534 LINE SMOOTH",
"278 534 OFFCURVE",
"299 514 OFFCURVE",
"299 483 CURVE",
"299 217 LINE",
"297 187 OFFCURVE",
"276 167 OFFCURVE",
"247 166 CURVE SMOOTH",
"215 165 LINE"
);
}
);
width = 502;
}
);
unicode = 0044;
},
{
color = 1;
glyphname = E;
lastChange = "2016-10-23 07:15:33 +0000";
layers = (
{
layerId = "262880E7-CFE1-4BDA-902E-E24798F3240A";
paths = (
{
closed = 1;
nodes = (
"450 0 LINE",
"450 21 LINE",
"130 21 LINE",
"130 679 LINE",
"450 679 LINE",
"450 700 LINE",
"108 700 LINE",
"108 0 LINE"
);
},
{
closed = 1;
nodes = (
"353 340 LINE",
"353 361 LINE",
"119 361 LINE",
"119 340 LINE"
);
}
);
width = 474;
},
{
layerId = "4E2227F3-52E4-4048-A8EE-327B486EF0A4";
paths = (
{
closed = 1;
nodes = (
"462 0 LINE",
"462 158 LINE",
"215 158 LINE",
"215 542 LINE",
"462 542 LINE",
"462 700 LINE",
"27 700 LINE",
"27 0 LINE"
);
},
{
closed = 1;
nodes = (
"363 283 LINE",
"363 443 LINE",
"103 443 LINE",
"103 283 LINE"
);
}
);
width = 468;
}
);
unicode = 0045;
},
{
color = 1;
glyphname = F;
lastChange = "2016-10-23 07:15:33 +0000";
layers = (
{
layerId = "262880E7-CFE1-4BDA-902E-E24798F3240A";
paths = (
{
closed = 1;
nodes = (
"130 0 LINE",
"130 679 LINE",
"449 679 LINE",
"449 700 LINE",
"108 700 LINE",
"108 0 LINE"
);
},
{
closed = 1;
nodes = (
"352 340 LINE",
"352 361 LINE",
"119 361 LINE",
"119 340 LINE"
);
}
);
width = 461;
},
{
layerId = "4E2227F3-52E4-4048-A8EE-327B486EF0A4";
paths = (
{
closed = 1;
nodes = (
"215 0 LINE",
"215 534 LINE",
"462 534 LINE",
"462 700 LINE",
"27 700 LINE",
"27 0 LINE"
);
},
{
closed = 1;
nodes = (
"363 269 LINE",
"363 435 LINE",
"103 435 LINE",
"103 269 LINE"
);
}
);
width = 465;
}
);
unicode = 0046;
},
{
color = 1;
glyphname = G;
lastChange = "2016-10-23 07:15:33 +0000";
layers = (
{
layerId = "262880E7-CFE1-4BDA-902E-E24798F3240A";
paths = (
{
closed = 1;
nodes = (
"337 -9 OFFCURVE",
"406 56 OFFCURVE",
"406 154 CURVE SMOOTH",
"406 361 LINE",
"242 361 LINE",
"242 340 LINE",
"384 340 LINE",
"384 152 LINE SMOOTH",
"384 68 OFFCURVE",
"324 12 OFFCURVE",
"233 12 CURVE SMOOTH",
"142 12 OFFCURVE",
"82 68 OFFCURVE",
"82 152 CURVE SMOOTH",
"82 548 LINE SMOOTH",
"82 632 OFFCURVE",
"142 688 OFFCURVE",
"233 688 CURVE SMOOTH",
"324 688 OFFCURVE",
"384 632 OFFCURVE",
"384 548 CURVE SMOOTH",
"384 500 LINE",
"406 500 LINE",
"406 546 LINE SMOOTH",
"406 644 OFFCURVE",
"337 709 OFFCURVE",
"233 709 CURVE SMOOTH",
"129 709 OFFCURVE",
"60 644 OFFCURVE",
"60 546 CURVE SMOOTH",
"60 154 LINE SMOOTH",
"60 56 OFFCURVE",
"129 -9 OFFCURVE",
"233 -9 CURVE SMOOTH"
);
}
);
width = 466;
},
{
layerId = "4E2227F3-52E4-4048-A8EE-327B486EF0A4";
paths = (
{
closed = 1;
nodes = (
"383 -8 OFFCURVE",
"475 72 OFFCURVE",
"475 192 CURVE SMOOTH",
"475 380 LINE",
"247 380 LINE",
"247 271 LINE",
"287 271 LINE",
"287 194 LINE SMOOTH",
"287 169 OFFCURVE",
"270 152 OFFCURVE",
"245 152 CURVE SMOOTH",
"220 152 OFFCURVE",
"203 169 OFFCURVE",
"203 194 CURVE SMOOTH",
"203 506 LINE SMOOTH",
"203 531 OFFCURVE",
"220 548 OFFCURVE",
"245 548 CURVE SMOOTH",
"270 548 OFFCURVE",
"287 531 OFFCURVE",
"287 506 CURVE SMOOTH",
"287 430 LINE",
"475 430 LINE",
"475 508 LINE SMOOTH",
"475 628 OFFCURVE",
"383 708 OFFCURVE",
"245 708 CURVE SMOOTH",
"107 708 OFFCURVE",
"15 628 OFFCURVE",
"15 508 CURVE SMOOTH",
"15 192 LINE SMOOTH",
"15 72 OFFCURVE",
"107 -8 OFFCURVE",
"245 -8 CURVE SMOOTH"
);
}
);
width = 490;
},
{
associatedMasterId = "4E2227F3-52E4-4048-A8EE-327B486EF0A4";
layerId = "3C312D8B-2C3F-47CF-BAFE-2D0CD7DFA532";
name = "DemiBold{110,100}";
paths = (
{
closed = 1;
nodes = (
"365 -8 OFFCURVE",
"446 64 OFFCURVE",
"446 174 CURVE SMOOTH",
"446 371 LINE",
"248 371 LINE",
"248 278 LINE",
"336 278 LINE",
"336 174 LINE SMOOTH",
"336 121 OFFCURVE",
"299 86 OFFCURVE",
"243 86 CURVE SMOOTH",
"187 86 OFFCURVE",
"149 121 OFFCURVE",
"149 174 CURVE SMOOTH",
"149 526 LINE SMOOTH",
"149 579 OFFCURVE",
"187 614 OFFCURVE",
"243 614 CURVE SMOOTH",
"299 614 OFFCURVE",
"336 579 OFFCURVE",
"336 526 CURVE SMOOTH",
"336 463 LINE",
"446 463 LINE",
"446 526 LINE SMOOTH",
"446 636 OFFCURVE",
"365 708 OFFCURVE",
"243 708 CURVE SMOOTH",
"121 708 OFFCURVE",
"40 636 OFFCURVE",
"40 526 CURVE SMOOTH",
"40 174 LINE SMOOTH",
"40 64 OFFCURVE",
"121 -8 OFFCURVE",
"243 -8 CURVE SMOOTH"
);
}
);
width = 486;
}
);
unicode = 0047;
},
{
color = 1;
glyphname = H;
lastChange = "2016-10-23 07:15:34 +0000";
layers = (
{
layerId = "262880E7-CFE1-4BDA-902E-E24798F3240A";
paths = (
{
closed = 1;
nodes = (
"452 0 LINE",
"452 700 LINE",
"430 700 LINE",
"430 0 LINE"
);
},
{
closed = 1;
nodes = (
"130 0 LINE",
"130 700 LINE",
"108 700 LINE",
"108 0 LINE"
);
},
{
closed = 1;
nodes = (
"435 340 LINE",
"435 361 LINE",
"125 361 LINE",
"125 340 LINE"
);
}
);
width = 560;
},
{
layerId = "4E2227F3-52E4-4048-A8EE-327B486EF0A4";
paths = (
{
closed = 1;
nodes = (
"469 0 LINE",
"469 700 LINE",
"281 700 LINE",
"281 0 LINE"
);
},
{
closed = 1;
nodes = (
"215 0 LINE",
"215 700 LINE",
"27 700 LINE",
"27 0 LINE"
);
},
{
closed = 1;
nodes = (
"350 275 LINE",
"350 435 LINE",
"145 435 LINE",
"145 275 LINE"
);
}
);
width = 496;
}
);
unicode = 0048;
},
{
color = 1;
glyphname = I;
lastChange = "2016-10-23 07:21:01 +0000";
layers = (
{
layerId = "262880E7-CFE1-4BDA-902E-E24798F3240A";
paths = (
{
closed = 1;
nodes = (
"124 0 LINE",
"124 700 LINE",
"102 700 LINE",
"102 0 LINE"
);
}
);
width = 226;
},
{
layerId = "4E2227F3-52E4-4048-A8EE-327B486EF0A4";
paths = (
{
closed = 1;
nodes = (
"215 0 LINE",
"215 700 LINE",
"27 700 LINE",
"27 0 LINE"
);
}
);
width = 242;
}
);
unicode = 0049;
},
{
color = 1;
glyphname = J;
lastChange = "2016-10-23 07:15:34 +0000";
layers = (
{
layerId = "262880E7-CFE1-4BDA-902E-E24798F3240A";
paths = (
{
closed = 1;
nodes = (
"334 -9 OFFCURVE",
"402 56 OFFCURVE",
"402 154 CURVE SMOOTH",
"402 700 LINE",
"380 700 LINE",
"380 152 LINE SMOOTH",
"380 68 OFFCURVE",
"320 12 OFFCURVE",
"231 12 CURVE SMOOTH",
"142 12 OFFCURVE",
"82 68 OFFCURVE",
"82 152 CURVE SMOOTH",
"82 234 LINE",
"60 234 LINE",
"60 154 LINE SMOOTH",
"60 56 OFFCURVE",
"128 -9 OFFCURVE",
"231 -9 CURVE SMOOTH"
);
}
);
width = 498;
},
{
layerId = "4E2227F3-52E4-4048-A8EE-327B486EF0A4";
paths = (
{
closed = 1;
nodes = (
"383 -8 OFFCURVE",
"475 72 OFFCURVE",
"475 192 CURVE SMOOTH",
"475 700 LINE",
"287 700 LINE",
"287 194 LINE SMOOTH",
"287 169 OFFCURVE",
"270 152 OFFCURVE",
"245 152 CURVE SMOOTH",
"220 152 OFFCURVE",
"203 169 OFFCURVE",
"203 194 CURVE SMOOTH",
"203 265 LINE",
"15 265 LINE",
"15 192 LINE SMOOTH",
"15 72 OFFCURVE",
"107 -8 OFFCURVE",
"245 -8 CURVE SMOOTH"
);
}
);
width = 499;
}
);
unicode = 004A;
},
{
color = 1;
glyphname = K;
lastChange = "2016-10-23 07:28:57 +0000";
layers = (
{
layerId = "262880E7-CFE1-4BDA-902E-E24798F3240A";
paths = (
{
closed = 1;
nodes = (
"130 0 LINE",
"130 328 LINE",
"411 0 LINE",
"440 0 LINE",
"138 350 LINE",
"440 700 LINE",
"411 700 LINE",
"130 372 LINE",
"130 700 LINE",
"108 700 LINE",
"108 0 LINE"
);
}
);
width = 428;
},
{
layerId = "4E2227F3-52E4-4048-A8EE-327B486EF0A4";
paths = (
{
closed = 1;
nodes = (
"215 0 LINE",
"215 214 LINE",
"317 0 LINE",
"532 0 LINE",
"345 362 LINE",
"540 700 LINE",
"332 700 LINE",
"215 461 LINE",
"215 700 LINE",
"27 700 LINE",
"27 0 LINE"
);
}
);
width = 537;
}
);
unicode = 004B;
},
{
color = 1;
glyphname = L;
lastChange = "2016-10-23 07:15:34 +0000";
layers = (
{
layerId = "262880E7-CFE1-4BDA-902E-E24798F3240A";
paths = (
{
closed = 1;
nodes = (
"441 0 LINE",
"441 21 LINE",
"130 21 LINE",
"130 700 LINE",
"108 700 LINE",
"108 0 LINE"
);
}
);
width = 453;
},
{
layerId = "4E2227F3-52E4-4048-A8EE-327B486EF0A4";
paths = (
{
closed = 1;
nodes = (
"462 0 LINE",
"462 160 LINE",
"215 160 LINE",
"215 700 LINE",
"27 700 LINE",
"27 0 LINE"
);
}
);
width = 465;
}
);
unicode = 004C;
},
{
color = 1;
glyphname = M;
lastChange = "2016-10-23 07:15:34 +0000";
layers = (
{
layerId = "262880E7-CFE1-4BDA-902E-E24798F3240A";
paths = (
{
closed = 1;
nodes = (
"130 0 LINE",
"130 651 LINE",
"298 327 LINE",
"466 651 LINE",
"466 0 LINE",
"488 0 LINE",
"488 700 LINE",
"466 700 LINE",
"298 372 LINE",
"130 700 LINE",
"108 700 LINE",
"108 0 LINE"
);
}
);
width = 596;
},
{
layerId = "4E2227F3-52E4-4048-A8EE-327B486EF0A4";
paths = (
{
closed = 1;
nodes = (
"215 0 LINE",
"215 414 LINE",
"282 276 LINE",
"347 411 LINE",
"347 0 LINE",
"535 0 LINE",
"535 700 LINE",
"352 700 LINE",
"282 557 LINE",
"210 700 LINE",
"27 700 LINE",
"27 0 LINE"
);
}
);
width = 562;
},
{
associatedMasterId = "4E2227F3-52E4-4048-A8EE-327B486EF0A4";
layerId = "C6629B64-9ED2-4F57-9FC9-8668B05C088F";
name = "Regular{62,100}";
paths = (
{
closed = 1;
nodes = (
"148 0 LINE",
"148 558 LINE",
"288 285 LINE",
"428 557 LINE",
"428 0 LINE",
"490 0 LINE",
"490 700 LINE",
"428 700 LINE",
"288 416 LINE",
"148 700 LINE",
"86 700 LINE",
"86 0 LINE"
);
}
);
width = 566;
}
);
unicode = 004D;
},
{
color = 1;
glyphname = N;
lastChange = "2016-10-23 07:15:34 +0000";
layers = (
{
layerId = "262880E7-CFE1-4BDA-902E-E24798F3240A";
paths = (
{
closed = 1;
nodes = (
"130 0 LINE",
"130 647 LINE",
"452 0 LINE",
"474 0 LINE",
"474 700 LINE",
"452 700 LINE",
"452 53 LINE",
"130 700 LINE",
"108 700 LINE",
"108 0 LINE"
);
}
);
width = 582;
},
{
layerId = "4E2227F3-52E4-4048-A8EE-327B486EF0A4";
paths = (
{
closed = 1;
nodes = (
"215 0 LINE",
"213 346 LINE",
"323 0 LINE",
"531 0 LINE",
"531 700 LINE",
"343 700 LINE",
"345 356 LINE",
"235 700 LINE",
"27 700 LINE",
"27 0 LINE"
);
}
);
width = 558;
},
{
associatedMasterId = "4E2227F3-52E4-4048-A8EE-327B486EF0A4";
layerId = "3255EADC-07B8-4519-845B-D97716A0B38E";
name = "Bold{137,100}";
paths = (
{
closed = 1;
nodes = (
"178 0 LINE",
"177 409 LINE",
"364 0 LINE",
"503 0 LINE",
"503 700 LINE",
"366 700 LINE",
"367 272 LINE",
"180 700 LINE",
"41 700 LINE",
"41 0 LINE"
);
}
);
width = 544;
}
);
unicode = 004E;
},
{
color = 1;
glyphname = O;
lastChange = "2016-10-23 07:15:34 +0000";
layers = (
{
layerId = "262880E7-CFE1-4BDA-902E-E24798F3240A";
paths = (
{
closed = 1;
nodes = (
"351 -9 OFFCURVE",
"422 56 OFFCURVE",
"422 154 CURVE SMOOTH",
"422 546 LINE SMOOTH",
"422 644 OFFCURVE",
"351 709 OFFCURVE",
"241 709 CURVE SMOOTH",
"131 709 OFFCURVE",
"60 644 OFFCURVE",
"60 546 CURVE SMOOTH",
"60 154 LINE SMOOTH",
"60 56 OFFCURVE",
"131 -9 OFFCURVE",
"241 -9 CURVE SMOOTH"
);
},
{
closed = 1;
nodes = (
"144 12 OFFCURVE",
"82 68 OFFCURVE",
"82 152 CURVE SMOOTH",
"82 548 LINE SMOOTH",
"82 632 OFFCURVE",
"144 688 OFFCURVE",
"241 688 CURVE SMOOTH",
"338 688 OFFCURVE",
"400 632 OFFCURVE",
"400 548 CURVE SMOOTH",
"400 152 LINE SMOOTH",
"400 68 OFFCURVE",
"338 12 OFFCURVE",
"241 12 CURVE SMOOTH"
);
}
);
width = 482;
},
{
layerId = "4E2227F3-52E4-4048-A8EE-327B486EF0A4";
paths = (
{
closed = 1;
nodes = (
"398 -8 OFFCURVE",
"493 72 OFFCURVE",
"493 192 CURVE SMOOTH",
"493 508 LINE SMOOTH",
"493 628 OFFCURVE",
"398 708 OFFCURVE",
"254 708 CURVE SMOOTH",
"110 708 OFFCURVE",
"15 628 OFFCURVE",
"15 508 CURVE SMOOTH",
"15 192 LINE SMOOTH",
"15 72 OFFCURVE",
"110 -8 OFFCURVE",
"254 -8 CURVE SMOOTH"
);
},
{
closed = 1;
nodes = (
"223 152 OFFCURVE",
"203 177 OFFCURVE",
"203 206 CURVE SMOOTH",
"203 494 LINE SMOOTH",
"203 523 OFFCURVE",
"223 548 OFFCURVE",
"254 548 CURVE SMOOTH",
"285 548 OFFCURVE",
"305 523 OFFCURVE",
"305 494 CURVE SMOOTH",
"305 206 LINE SMOOTH",
"305 177 OFFCURVE",
"285 152 OFFCURVE",
"254 152 CURVE SMOOTH"
);
}
);
width = 508;
}
);
unicode = 004F;
},
{
color = 1;
glyphname = P;
lastChange = "2016-10-23 07:15:34 +0000";
layers = (
{
layerId = "262880E7-CFE1-4BDA-902E-E24798F3240A";
paths = (
{
closed = 1;
nodes = (
"131 0 LINE",
"131 680 LINE",
"308 680 LINE SMOOTH",
"392 680 OFFCURVE",
"448 616 OFFCURVE",
"448 520 CURVE SMOOTH",
"448 424 OFFCURVE",
"392 360 OFFCURVE",
"308 360 CURVE SMOOTH",
"126 360 LINE",
"126 340 LINE",
"306 340 LINE SMOOTH",
"404 340 OFFCURVE",
"469 411 OFFCURVE",
"469 520 CURVE SMOOTH",
"469 629 OFFCURVE",
"404 702 OFFCURVE",
"306 702 CURVE SMOOTH",
"108 702 LINE",
"108 0 LINE"
);
}
);
width = 493;
},
{
layerId = "4E2227F3-52E4-4048-A8EE-327B486EF0A4";
paths = (
{
closed = 1;
nodes = (
"215 0 LINE",
"215 540 LINE",
"250 540 LINE SMOOTH",
"282 540 OFFCURVE",
"304 514 OFFCURVE",
"304 476 CURVE SMOOTH",
"304 438 OFFCURVE",
"282 412 OFFCURVE",
"250 412 CURVE SMOOTH",
"199 412 LINE",
"199 256 LINE",
"282 256 LINE SMOOTH",
"408 256 OFFCURVE",
"492 346 OFFCURVE",
"492 476 CURVE SMOOTH",
"492 610 OFFCURVE",
"404 700 OFFCURVE",
"272 700 CURVE SMOOTH",
"27 700 LINE",
"27 0 LINE"
);
}
);
width = 498;
}
);
unicode = 0050;
},
{
color = 1;
glyphname = Q;
lastChange = "2016-10-23 07:15:38 +0000";
layers = (
{
layerId = "262880E7-CFE1-4BDA-902E-E24798F3240A";
paths = (
{
closed = 1;
nodes = (
"342 -9 OFFCURVE",
"412 56 OFFCURVE",
"412 154 CURVE SMOOTH",
"412 546 LINE SMOOTH",
"412 644 OFFCURVE",
"342 709 OFFCURVE",
"236 709 CURVE SMOOTH",
"130 709 OFFCURVE",
"60 644 OFFCURVE",
"60 546 CURVE SMOOTH",
"60 154 LINE SMOOTH",
"60 56 OFFCURVE",
"130 -9 OFFCURVE",
"236 -9 CURVE SMOOTH"
);
},
{
closed = 1;
nodes = (
"371 -51 LINE",
"172 16 LINE",
"172 0 LINE",
"371 -72 LINE"
);
},
{
closed = 1;
nodes = (
"143 12 OFFCURVE",
"82 68 OFFCURVE",
"82 152 CURVE SMOOTH",
"82 548 LINE SMOOTH",
"82 632 OFFCURVE",
"143 688 OFFCURVE",
"236 688 CURVE SMOOTH",
"329 688 OFFCURVE",
"390 632 OFFCURVE",
"390 548 CURVE SMOOTH",
"390 152 LINE SMOOTH",
"390 68 OFFCURVE",
"329 12 OFFCURVE",
"236 12 CURVE SMOOTH"
);
}
);
width = 482;
},
{
layerId = "4E2227F3-52E4-4048-A8EE-327B486EF0A4";
paths = (
{
closed = 1;
nodes = (
"393 -8 OFFCURVE",
"487 72 OFFCURVE",
"487 192 CURVE SMOOTH",
"487 508 LINE SMOOTH",
"487 628 OFFCURVE",
"393 708 OFFCURVE",
"251 708 CURVE SMOOTH",
"109 708 OFFCURVE",
"15 628 OFFCURVE",
"15 508 CURVE SMOOTH",
"15 192 LINE SMOOTH",
"15 72 OFFCURVE",
"109 -8 OFFCURVE",
"251 -8 CURVE SMOOTH"
);
},
{
closed = 1;
nodes = (
"515 71 LINE",
"173 66 LINE",
"176 1 LINE",
"478 -64 LINE"
);
},
{
closed = 1;
nodes = (
"222 152 OFFCURVE",
"203 172 OFFCURVE",
"203 203 CURVE SMOOTH",
"203 497 LINE SMOOTH",
"203 528 OFFCURVE",
"222 548 OFFCURVE",
"251 548 CURVE SMOOTH",
"280 548 OFFCURVE",
"299 528 OFFCURVE",
"299 497 CURVE SMOOTH",
"299 203 LINE SMOOTH",
"299 172 OFFCURVE",
"280 152 OFFCURVE",
"251 152 CURVE SMOOTH"
);
}
);
width = 508;
}
);
unicode = 0051;
},
{
color = 1;
glyphname = R;
lastChange = "2016-10-23 07:20:06 +0000";
layers = (
{
layerId = "262880E7-CFE1-4BDA-902E-E24798F3240A";
paths = (
{
closed = 1;
nodes = (
"131 0 LINE",
"131 680 LINE",
"312 680 LINE SMOOTH",
"396 680 OFFCURVE",
"452 616 OFFCURVE",
"452 520 CURVE SMOOTH",
"452 424 OFFCURVE",
"396 360 OFFCURVE",
"312 360 CURVE SMOOTH",
"126 360 LINE",
"126 340 LINE",
"310 340 LINE SMOOTH",
"408 340 OFFCURVE",
"473 411 OFFCURVE",
"473 520 CURVE SMOOTH",
"473 629 OFFCURVE",
"408 702 OFFCURVE",
"310 702 CURVE SMOOTH",
"108 702 LINE",
"108 0 LINE"
);
},
{
closed = 1;
nodes = (
"451 0 LINE",
"330 349 LINE",
"312 341 LINE",
"429 0 LINE"
);
}
);
width = 533;
},
{
layerId = "4E2227F3-52E4-4048-A8EE-327B486EF0A4";
paths = (
{
closed = 1;
nodes = (
"215 0 LINE",
"215 540 LINE",
"263 540 LINE SMOOTH",
"295 540 OFFCURVE",
"317 514 OFFCURVE",
"317 476 CURVE SMOOTH",
"317 438 OFFCURVE",
"295 412 OFFCURVE",
"263 412 CURVE SMOOTH",
"199 412 LINE",
"199 256 LINE",
"295 256 LINE SMOOTH",
"421 256 OFFCURVE",
"505 346 OFFCURVE",
"505 476 CURVE SMOOTH",
"505 610 OFFCURVE",
"417 700 OFFCURVE",
"285 700 CURVE SMOOTH",
"27 700 LINE",
"27 0 LINE"
);
},
{
closed = 1;
nodes = (
"506 0 LINE",
"412 338 LINE",
"234 338 LINE",
"312 0 LINE"
);
}
);
width = 512;
}
);
unicode = 0052;
},
{
color = 1;
glyphname = S;
lastChange = "2016-10-23 07:15:34 +0000";
layers = (
{
layerId = "262880E7-CFE1-4BDA-902E-E24798F3240A";
paths = (
{
closed = 1;
nodes = (
"292 -9 OFFCURVE",
"356 49 OFFCURVE",
"356 149 CURVE SMOOTH",
"356 254 OFFCURVE",
"273 307 OFFCURVE",
"191 359 CURVE SMOOTH",
"113 409 OFFCURVE",
"36 457 OFFCURVE",
"36 550 CURVE SMOOTH",
"36 637 OFFCURVE",
"90 688 OFFCURVE",
"182 688 CURVE SMOOTH",
"274 688 OFFCURVE",
"328 636 OFFCURVE",
"328 548 CURVE SMOOTH",
"328 500 LINE",
"350 500 LINE",
"350 549 LINE SMOOTH",
"350 650 OFFCURVE",
"288 709 OFFCURVE",
"182 709 CURVE SMOOTH",
"76 709 OFFCURVE",
"14 651 OFFCURVE",
"14 552 CURVE SMOOTH",
"14 448 OFFCURVE",
"97 395 OFFCURVE",
"178 343 CURVE SMOOTH",
"257 293 OFFCURVE",
"334 243 OFFCURVE",
"334 149 CURVE SMOOTH",
"334 63 OFFCURVE",
"278 12 OFFCURVE",
"183 12 CURVE SMOOTH",
"90 12 OFFCURVE",
"36 63 OFFCURVE",
"36 151 CURVE SMOOTH",
"36 210 LINE",
"16 210 LINE",
"16 150 LINE SMOOTH",
"16 50 OFFCURVE",
"78 -9 OFFCURVE",
"184 -9 CURVE SMOOTH"
);
}
);
width = 370;
},
{
layerId = "4E2227F3-52E4-4048-A8EE-327B486EF0A4";
paths = (
{
closed = 1;
nodes = (
"358 -8 OFFCURVE",
"447 70 OFFCURVE",
"447 187 CURVE SMOOTH",
"447 288 OFFCURVE",
"380 338 OFFCURVE",
"275 412 CURVE SMOOTH",
"208 459 OFFCURVE",
"188 475 OFFCURVE",
"188 508 CURVE SMOOTH",
"188 534 OFFCURVE",
"201 548 OFFCURVE",
"222 548 CURVE SMOOTH",
"243 548 OFFCURVE",
"257 534 OFFCURVE",
"257 514 CURVE SMOOTH",
"257 490 LINE",
"442 490 LINE",
"442 509 LINE SMOOTH",
"442 628 OFFCURVE",
"355 708 OFFCURVE",
"223 708 CURVE SMOOTH",
"90 708 OFFCURVE",
"3 628 OFFCURVE",
"3 510 CURVE SMOOTH",
"3 387 OFFCURVE",
"98 322 OFFCURVE",
"173 272 CURVE SMOOTH",
"243 225 OFFCURVE",
"262 211 OFFCURVE",
"262 186 CURVE SMOOTH",
"262 164 OFFCURVE",
"248 152 OFFCURVE",
"228 152 CURVE SMOOTH",
"207 152 OFFCURVE",
"193 166 OFFCURVE",
"193 188 CURVE SMOOTH",
"193 211 LINE",
"8 211 LINE",
"8 180 LINE SMOOTH",
"8 70 OFFCURVE",
"93 -8 OFFCURVE",
"226 -8 CURVE SMOOTH"
);
}
);
width = 450;
}
);
unicode = 0053;
},
{
color = 1;
glyphname = T;
lastChange = "2016-10-23 07:15:34 +0000";
layers = (
{
layerId = "262880E7-CFE1-4BDA-902E-E24798F3240A";
paths = (
{
closed = 1;
nodes = (
"204 0 LINE",
"204 689 LINE",
"182 689 LINE",
"182 0 LINE"
);
},
{
closed = 1;
nodes = (
"382 679 LINE",
"382 700 LINE",
"12 700 LINE",
"12 679 LINE"
);
}
);
width = 394;
},
{
layerId = "4E2227F3-52E4-4048-A8EE-327B486EF0A4";
paths = (
{
closed = 1;
nodes = (
"329 0 LINE",
"329 689 LINE",
"141 689 LINE",
"141 0 LINE"
);
},
{
closed = 1;
nodes = (
"471 540 LINE",
"471 700 LINE",
"3 700 LINE",
"3 540 LINE"
);
}
);
width = 474;
}
);
unicode = 0054;
},
{
color = 1;
glyphname = U;
lastChange = "2016-10-23 07:15:34 +0000";
layers = (
{
layerId = "262880E7-CFE1-4BDA-902E-E24798F3240A";
paths = (
{
closed = 1;
nodes = (
"394 -9 OFFCURVE",
"466 59 OFFCURVE",
"466 160 CURVE SMOOTH",
"466 700 LINE",
"444 700 LINE",
"444 156 LINE SMOOTH",
"444 70 OFFCURVE",
"381 12 OFFCURVE",
"287 12 CURVE SMOOTH",
"193 12 OFFCURVE",
"130 70 OFFCURVE",
"130 156 CURVE SMOOTH",
"130 700 LINE",
"108 700 LINE",
"108 160 LINE SMOOTH",
"108 59 OFFCURVE",
"180 -9 OFFCURVE",
"287 -9 CURVE SMOOTH"
);
}
);
width = 574;
},
{
layerId = "4E2227F3-52E4-4048-A8EE-327B486EF0A4";
paths = (
{
closed = 1;
nodes = (
"394 -8 OFFCURVE",
"487 72 OFFCURVE",
"487 192 CURVE SMOOTH",
"487 700 LINE",
"299 700 LINE",
"299 198 LINE SMOOTH",
"299 170 OFFCURVE",
"281 152 OFFCURVE",
"257 152 CURVE SMOOTH",
"233 152 OFFCURVE",
"215 170 OFFCURVE",
"215 198 CURVE SMOOTH",
"215 700 LINE",
"27 700 LINE",
"27 192 LINE SMOOTH",
"27 72 OFFCURVE",
"120 -8 OFFCURVE",
"257 -8 CURVE SMOOTH"
);
}
);
width = 514;
}
);
unicode = 0055;
},
{
color = 1;
glyphname = V;
lastChange = "2016-10-23 07:15:34 +0000";
layers = (
{
layerId = "262880E7-CFE1-4BDA-902E-E24798F3240A";
paths = (
{
closed = 1;
nodes = (
"211 0 LINE",
"412 700 LINE",
"390 700 LINE",
"200 42 LINE",
"10 700 LINE",
"-12 700 LINE",
"189 0 LINE"
);
}
);
width = 400;
},
{
layerId = "4E2227F3-52E4-4048-A8EE-327B486EF0A4";
paths = (
{
closed = 1;
nodes = (
"363 0 LINE",
"531 700 LINE",
"343 700 LINE",
"267 251 LINE",
"185 700 LINE",
"-3 700 LINE",
"165 0 LINE"
);
}
);
width = 528;
}
);
unicode = 0056;
},
{
color = 1;
glyphname = W;
lastChange = "2016-10-23 07:15:34 +0000";
layers = (
{
layerId = "262880E7-CFE1-4BDA-902E-E24798F3240A";
paths = (
{
closed = 1;
nodes = (
"165 0 LINE",
"314 657 LINE",
"459 0 LINE",
"481 0 LINE",
"638 700 LINE",
"616 700 LINE",
"471 40 LINE",
"322 700 LINE",
"304 700 LINE",
"155 40 LINE",
"10 700 LINE",
"-12 700 LINE",
"143 0 LINE"
);
}
);
width = 626;
},
{
layerId = "4E2227F3-52E4-4048-A8EE-327B486EF0A4";
paths = (
{
closed = 1;
nodes = (
"294 0 LINE",
"342 362 LINE",
"386 0 LINE",
"553 0 LINE",
"688 700 LINE",
"500 700 LINE",
"470 342 LINE",
"420 700 LINE",
"267 700 LINE",
"217 342 LINE",
"187 700 LINE",
"-3 700 LINE",
"132 0 LINE"
);
}
);
width = 685;
}
);
unicode = 0057;
},
{
color = 1;
glyphname = X;
lastChange = "2016-10-23 07:15:34 +0000";
layers = (
{
layerId = "262880E7-CFE1-4BDA-902E-E24798F3240A";
paths = (
{
closed = 1;
nodes = (
"13 0 LINE",
"188 330 LINE",
"363 0 LINE",
"388 0 LINE",
"199 349 LINE",
"388 700 LINE",
"363 700 LINE",
"188 369 LINE",
"13 700 LINE",
"-12 700 LINE",
"177 350 LINE",
"-12 0 LINE"
);
}
);
width = 376;
},
{
layerId = "4E2227F3-52E4-4048-A8EE-327B486EF0A4";
paths = (
{
closed = 1;
nodes = (
"188 0 LINE",
"244 162 LINE",
"299 0 LINE",
"490 0 LINE",
"343 350 LINE",
"490 700 LINE",
"298 700 LINE",
"244 537 LINE",
"189 700 LINE",
"-3 700 LINE",
"144 350 LINE",
"-3 0 LINE"
);
}
);
width = 487;
}
);
unicode = 0058;
},
{
color = 1;
glyphname = Y;
lastChange = "2016-10-23 07:15:34 +0000";
layers = (
{
layerId = "262880E7-CFE1-4BDA-902E-E24798F3240A";
paths = (
{
closed = 1;
nodes = (
"195 0 LINE",
"195 339 LINE",
"380 700 LINE",
"358 700 LINE",
"184 358 LINE",
"10 700 LINE",
"-12 700 LINE",
"173 339 LINE",
"173 0 LINE"
);
}
);
width = 368;
},
{
layerId = "4E2227F3-52E4-4048-A8EE-327B486EF0A4";
paths = (
{
closed = 1;
nodes = (
"349 2 LINE",
"349 257 LINE",
"514 700 LINE",
"324 700 LINE",
"256 462 LINE",
"187 700 LINE",
"-3 700 LINE",
"161 257 LINE",
"161 2 LINE"
);
}
);
width = 511;
},
{
associatedMasterId = "262880E7-CFE1-4BDA-902E-E24798F3240A";
layerId = "394D83DF-4BD1-4276-9A3C-19912AD5F0BB";
name = "Oct 20 16, 01:26";
paths = (
{
closed = 1;
nodes = (
"404 700 LINE",
"382 700 LINE",
"208 360 LINE",
"34 700 LINE",
"12 700 LINE",
"208 318 LINE"
);
},
{
closed = 1;
nodes = (
"219 0 LINE",
"219 350 LINE",
"197 350 LINE",
"197 0 LINE"
);
}
);
width = 416;
}
);
unicode = 0059;
},
{
color = 1;
glyphname = Z;
lastChange = "2016-10-23 07:24:13 +0000";
layers = (
{
layerId = "262880E7-CFE1-4BDA-902E-E24798F3240A";
paths = (
{
closed = 1;
nodes = (
"348 0 LINE",
"348 21 LINE",
"25 21 LINE",
"348 679 LINE",
"348 700 LINE",
"0 700 LINE",
"0 679 LINE",
"324 679 LINE",
"0 21 LINE",
"0 0 LINE"
);
}
);
width = 348;
},
{
layerId = "4E2227F3-52E4-4048-A8EE-327B486EF0A4";
paths = (
{
closed = 1;
nodes = (
"410 0 LINE",
"410 160 LINE",
"180 160 LINE",
"410 540 LINE",
"410 700 LINE",
"0 700 LINE",
"0 540 LINE",
"229 540 LINE",
"0 160 LINE",
"0 0 LINE"
);
}
);
width = 410;
}
);
unicode = 005A;
},
{
color = 1;
glyphname = a;
lastChange = "2016-10-23 07:15:34 +0000";
layers = (
{
layerId = "262880E7-CFE1-4BDA-902E-E24798F3240A";
paths = (
{
closed = 1;
nodes = (
"350 -5 OFFCURVE",
"415 56 OFFCURVE",
"415 161 CURVE SMOOTH",
"415 339 LINE SMOOTH",
"415 438 OFFCURVE",
"356 505 OFFCURVE",
"250 505 CURVE SMOOTH",
"147 505 OFFCURVE",
"84 442 OFFCURVE",
"84 339 CURVE SMOOTH",
"84 161 LINE SMOOTH",
"84 58 OFFCURVE",
"149 -5 OFFCURVE",
"252 -5 CURVE SMOOTH"
);
},
{
closed = 1;
nodes = (
"161 16 OFFCURVE",
"106 70 OFFCURVE",
"106 158 CURVE SMOOTH",
"106 342 LINE SMOOTH",
"106 430 OFFCURVE",
"161 484 OFFCURVE",
"251 484 CURVE SMOOTH",
"341 484 OFFCURVE",
"396 430 OFFCURVE",
"396 342 CURVE SMOOTH",
"396 158 LINE SMOOTH",
"396 70 OFFCURVE",
"341 16 OFFCURVE",
"251 16 CURVE SMOOTH"
);
},
{
closed = 1;
nodes = (
"418 0 LINE",
"418 500 LINE",
"396 500 LINE",
"396 0 LINE"
);
}
);
width = 516;
},
{
layerId = "4E2227F3-52E4-4048-A8EE-327B486EF0A4";
paths = (
{
closed = 1;
nodes = (
"278 -5 OFFCURVE",
"345 72 OFFCURVE",
"345 177 CURVE SMOOTH",
"345 323 LINE SMOOTH",
"345 428 OFFCURVE",
"278 505 OFFCURVE",
"165 505 CURVE SMOOTH",
"85 505 OFFCURVE",
"18 466 OFFCURVE",
"18 359 CURVE SMOOTH",
"18 141 LINE SMOOTH",
"18 34 OFFCURVE",
"85 -5 OFFCURVE",
"165 -5 CURVE SMOOTH"
);
},
{
closed = 1;
nodes = (
"218 145 OFFCURVE",
"206 157 OFFCURVE",
"206 177 CURVE SMOOTH",
"206 323 LINE SMOOTH",
"206 343 OFFCURVE",
"218 355 OFFCURVE",
"235 355 CURVE SMOOTH",
"252 355 OFFCURVE",
"264 343 OFFCURVE",
"264 323 CURVE",
"264 177 LINE",
"264 157 OFFCURVE",
"252 145 OFFCURVE",
"235 145 CURVE SMOOTH"
);
},
{
closed = 1;
nodes = (
"452 1 LINE",
"452 501 LINE",
"264 501 LINE",
"264 1 LINE"
);
}
);
width = 473;
}
);
unicode = 0061;
},
{
color = 1;
glyphname = b;
lastChange = "2016-10-23 07:15:34 +0000";
layers = (
{
layerId = "262880E7-CFE1-4BDA-902E-E24798F3240A";
paths = (
{
closed = 1;
nodes = (
"353 -5 OFFCURVE",
"418 58 OFFCURVE",
"418 161 CURVE SMOOTH",
"418 339 LINE SMOOTH",
"418 442 OFFCURVE",
"355 505 OFFCURVE",
"252 505 CURVE SMOOTH",
"150 505 OFFCURVE",
"87 442 OFFCURVE",
"87 339 CURVE SMOOTH",
"87 161 LINE SMOOTH",
"87 58 OFFCURVE",
"148 -5 OFFCURVE",
"250 -5 CURVE SMOOTH"
);
},
{
closed = 1;
nodes = (
"106 0 LINE",
"106 700 LINE",
"84 700 LINE",
"84 0 LINE"
);
},
{
closed = 1;
nodes = (
"161 16 OFFCURVE",
"106 69 OFFCURVE",
"106 158 CURVE SMOOTH",
"106 342 LINE SMOOTH",
"106 430 OFFCURVE",
"161 484 OFFCURVE",
"251 484 CURVE SMOOTH",
"341 484 OFFCURVE",
"396 430 OFFCURVE",
"396 342 CURVE SMOOTH",
"396 158 LINE SMOOTH",
"396 70 OFFCURVE",
"341 16 OFFCURVE",
"251 16 CURVE SMOOTH"
);
}
);
width = 490;
},
{
layerId = "4E2227F3-52E4-4048-A8EE-327B486EF0A4";
paths = (
{
closed = 1;
nodes = (
"388 -5 OFFCURVE",
"455 34 OFFCURVE",
"455 141 CURVE SMOOTH",
"455 359 LINE SMOOTH",
"455 466 OFFCURVE",
"388 505 OFFCURVE",
"308 505 CURVE SMOOTH",
"195 505 OFFCURVE",
"128 428 OFFCURVE",
"128 323 CURVE SMOOTH",
"128 177 LINE SMOOTH",
"128 72 OFFCURVE",
"195 -5 OFFCURVE",
"308 -5 CURVE SMOOTH"
);
},
{
closed = 1;
nodes = (
"209 1 LINE",
"209 701 LINE",
"21 701 LINE",
"21 1 LINE"
);
},
{
closed = 1;
nodes = (
"221 145 OFFCURVE",
"209 157 OFFCURVE",
"209 177 CURVE",
"209 323 LINE",
"209 343 OFFCURVE",
"221 355 OFFCURVE",
"238 355 CURVE SMOOTH",
"255 355 OFFCURVE",
"267 343 OFFCURVE",
"267 323 CURVE SMOOTH",
"267 177 LINE SMOOTH",
"267 157 OFFCURVE",
"255 145 OFFCURVE",
"238 145 CURVE SMOOTH"
);
}
);
width = 473;
}
);
unicode = 0062;
},
{
color = 1;
glyphname = c;
lastChange = "2016-10-23 07:15:34 +0000";
layers = (
{
layerId = "262880E7-CFE1-4BDA-902E-E24798F3240A";
paths = (
{
closed = 1;
nodes = (
"342 -5 OFFCURVE",
"410 61 OFFCURVE",
"410 161 CURVE SMOOTH",
"410 162 LINE",
"388 162 LINE",
"388 158 LINE SMOOTH",
"388 73 OFFCURVE",
"328 16 OFFCURVE",
"240 16 CURVE SMOOTH",
"152 16 OFFCURVE",
"92 73 OFFCURVE",
"92 158 CURVE SMOOTH",
"92 342 LINE SMOOTH",
"92 427 OFFCURVE",
"152 484 OFFCURVE",
"240 484 CURVE SMOOTH",
"328 484 OFFCURVE",
"388 427 OFFCURVE",
"388 342 CURVE SMOOTH",
"388 338 LINE",
"410 338 LINE",
"410 339 LINE SMOOTH",
"410 439 OFFCURVE",
"342 505 OFFCURVE",
"240 505 CURVE SMOOTH",
"138 505 OFFCURVE",
"70 439 OFFCURVE",
"70 339 CURVE SMOOTH",
"70 161 LINE SMOOTH",
"70 61 OFFCURVE",
"138 -5 OFFCURVE",
"240 -5 CURVE SMOOTH"
);
}
);
width = 480;
},
{
layerId = "4E2227F3-52E4-4048-A8EE-327B486EF0A4";
paths = (
{
closed = 1;
nodes = (
"366 -8 OFFCURVE",
"449 68 OFFCURVE",
"449 181 CURVE SMOOTH",
"449 221 LINE",
"261 221 LINE",
"261 174 LINE SMOOTH",
"261 155 OFFCURVE",
"249 142 OFFCURVE",
"232 142 CURVE SMOOTH",
"215 142 OFFCURVE",
"203 155 OFFCURVE",
"203 174 CURVE SMOOTH",
"203 326 LINE SMOOTH",
"203 345 OFFCURVE",
"215 358 OFFCURVE",
"232 358 CURVE SMOOTH",
"249 358 OFFCURVE",
"261 345 OFFCURVE",
"261 326 CURVE SMOOTH",
"261 280 LINE",
"449 279 LINE",
"449 319 LINE SMOOTH",
"449 432 OFFCURVE",
"366 508 OFFCURVE",
"232 508 CURVE SMOOTH",
"98 508 OFFCURVE",
"15 432 OFFCURVE",
"15 319 CURVE SMOOTH",
"15 181 LINE SMOOTH",
"15 68 OFFCURVE",
"98 -8 OFFCURVE",
"232 -8 CURVE SMOOTH"
);
}
);
width = 464;
},
{
associatedMasterId = "262880E7-CFE1-4BDA-902E-E24798F3240A";
layerId = "AA68AA89-7B7F-412A-BC4D-3A50F432D1F5";
name = "Medium {85,100}";
paths = (
{
closed = 1;
nodes = (
"349 -5 OFFCURVE",
"422 65 OFFCURVE",
"422 170 CURVE SMOOTH",
"422 185 LINE",
"338 185 LINE",
"338 176 LINE SMOOTH",
"338 115 OFFCURVE",
"296 75 OFFCURVE",
"234 75 CURVE SMOOTH",
"172 75 OFFCURVE",
"130 115 OFFCURVE",
"130 176 CURVE SMOOTH",
"130 324 LINE SMOOTH",
"130 385 OFFCURVE",
"172 425 OFFCURVE",
"234 425 CURVE SMOOTH",
"296 425 OFFCURVE",
"338 385 OFFCURVE",
"338 324 CURVE SMOOTH",
"338 316 LINE",
"422 315 LINE",
"422 330 LINE SMOOTH",
"422 435 OFFCURVE",
"349 505 OFFCURVE",
"234 505 CURVE SMOOTH",
"119 505 OFFCURVE",
"46 435 OFFCURVE",
"46 330 CURVE SMOOTH",
"46 170 LINE SMOOTH",
"46 65 OFFCURVE",
"119 -5 OFFCURVE",
"234 -5 CURVE SMOOTH"
);
}
);
width = 453;
}
);
unicode = 0063;
},
{
color = 1;
glyphname = d;
lastChange = "2016-10-23 07:15:34 +0000";
layers = (
{
layerId = "262880E7-CFE1-4BDA-902E-E24798F3240A";
paths = (
{
closed = 1;
nodes = (
"339 -5 OFFCURVE",
"403 58 OFFCURVE",
"403 161 CURVE SMOOTH",
"403 339 LINE SMOOTH",
"403 442 OFFCURVE",
"340 505 OFFCURVE",
"238 505 CURVE SMOOTH",
"135 505 OFFCURVE",
"72 442 OFFCURVE",
"72 339 CURVE SMOOTH",
"72 161 LINE SMOOTH",
"72 58 OFFCURVE",
"136 -5 OFFCURVE",
"239 -5 CURVE SMOOTH"
);
},
{
closed = 1;
nodes = (
"149 16 OFFCURVE",
"94 70 OFFCURVE",
"94 158 CURVE SMOOTH",
"94 342 LINE SMOOTH",
"94 430 OFFCURVE",
"149 484 OFFCURVE",
"239 484 CURVE SMOOTH",
"329 484 OFFCURVE",
"384 430 OFFCURVE",
"384 342 CURVE SMOOTH",
"384 158 LINE SMOOTH",
"384 69 OFFCURVE",
"329 16 OFFCURVE",
"239 16 CURVE SMOOTH"
);
},
{
closed = 1;
nodes = (
"406 0 LINE",
"406 700 LINE",
"384 700 LINE",
"384 0 LINE"
);
}
);
width = 490;
},
{
layerId = "4E2227F3-52E4-4048-A8EE-327B486EF0A4";
paths = (
{
closed = 1;
nodes = (
"278 -5 OFFCURVE",
"345 72 OFFCURVE",
"345 177 CURVE SMOOTH",
"345 323 LINE SMOOTH",
"345 428 OFFCURVE",
"278 505 OFFCURVE",
"165 505 CURVE SMOOTH",
"85 505 OFFCURVE",
"18 466 OFFCURVE",
"18 359 CURVE SMOOTH",
"18 141 LINE SMOOTH",
"18 34 OFFCURVE",
"85 -5 OFFCURVE",
"165 -5 CURVE SMOOTH"
);
},
{
closed = 1;
nodes = (
"218 145 OFFCURVE",
"206 157 OFFCURVE",
"206 177 CURVE SMOOTH",
"206 323 LINE SMOOTH",
"206 343 OFFCURVE",
"218 355 OFFCURVE",
"235 355 CURVE SMOOTH",
"252 355 OFFCURVE",
"264 343 OFFCURVE",
"264 323 CURVE",
"264 177 LINE",
"264 157 OFFCURVE",
"252 145 OFFCURVE",
"235 145 CURVE SMOOTH"
);
},
{
closed = 1;
nodes = (
"452 1 LINE",
"452 701 LINE",
"264 701 LINE",
"264 0 LINE"
);
}
);
width = 473;
}
);
unicode = 0064;
},
{
color = 1;
glyphname = e;
lastChange = "2016-10-23 07:15:34 +0000";
layers = (
{
layerId = "262880E7-CFE1-4BDA-902E-E24798F3240A";
paths = (
{
closed = 1;
nodes = (
"336 -5 OFFCURVE",
"401 51 OFFCURVE",
"411 139 CURVE",
"411 141 LINE",
"389 141 LINE",
"389 139 LINE",
"381 64 OFFCURVE",
"324 16 OFFCURVE",
"241 16 CURVE SMOOTH",
"151 16 OFFCURVE",
"92 73 OFFCURVE",
"92 158 CURVE SMOOTH",
"92 342 LINE SMOOTH",
"92 427 OFFCURVE",
"151 484 OFFCURVE",
"241 484 CURVE SMOOTH",
"331 484 OFFCURVE",
"390 427 OFFCURVE",
"390 342 CURVE SMOOTH",
"390 264 LINE",
"87 264 LINE",
"87 243 LINE",
"412 243 LINE",
"412 339 LINE SMOOTH",
"412 439 OFFCURVE",
"344 505 OFFCURVE",
"241 505 CURVE SMOOTH",
"138 505 OFFCURVE",
"70 439 OFFCURVE",
"70 339 CURVE SMOOTH",
"70 161 LINE SMOOTH",
"70 61 OFFCURVE",
"138 -5 OFFCURVE",
"241 -5 CURVE SMOOTH"
);
}
);
width = 482;
},
{
layerId = "4E2227F3-52E4-4048-A8EE-327B486EF0A4";
paths = (
{
closed = 1;
nodes = (
"366 -8 OFFCURVE",
"449 68 OFFCURVE",
"449 181 CURVE SMOOTH",
"449 182 LINE",
"261 182 LINE",
"261 174 LINE SMOOTH",
"261 155 OFFCURVE",
"249 142 OFFCURVE",
"232 142 CURVE SMOOTH",
"215 142 OFFCURVE",
"203 155 OFFCURVE",
"203 174 CURVE SMOOTH",
"203 326 LINE SMOOTH",
"203 345 OFFCURVE",
"215 358 OFFCURVE",
"232 358 CURVE SMOOTH",
"249 358 OFFCURVE",
"261 345 OFFCURVE",
"261 326 CURVE SMOOTH",
"261 297 LINE",
"184 297 LINE",
"184 214 LINE",
"449 214 LINE",
"449 319 LINE SMOOTH",
"449 432 OFFCURVE",
"366 508 OFFCURVE",
"232 508 CURVE SMOOTH",
"98 508 OFFCURVE",
"15 432 OFFCURVE",
"15 319 CURVE SMOOTH",
"15 181 LINE SMOOTH",
"15 68 OFFCURVE",
"98 -8 OFFCURVE",
"232 -8 CURVE SMOOTH"
);
}
);
width = 464;
},
{
associatedMasterId = "4E2227F3-52E4-4048-A8EE-327B486EF0A4";
layerId = "F43F543C-68B1-49FC-928D-4F50CE8623A2";
name = "Medium{85,100}";
paths = (
{
closed = 1;
nodes = (
"352 -5 OFFCURVE",
"425 65 OFFCURVE",
"425 170 CURVE SMOOTH",
"425 171 LINE",
"341 171 LINE",
"341 166 LINE SMOOTH",
"341 105 OFFCURVE",
"300 65 OFFCURVE",
"237 65 CURVE SMOOTH",
"174 65 OFFCURVE",
"133 105 OFFCURVE",
"133 166 CURVE SMOOTH",
"133 334 LINE SMOOTH",
"133 395 OFFCURVE",
"174 435 OFFCURVE",
"237 435 CURVE SMOOTH",
"300 435 OFFCURVE",
"341 395 OFFCURVE",
"341 334 CURVE SMOOTH",
"341 292 LINE",
"117 292 LINE",
"117 226 LINE",
"425 226 LINE",
"425 330 LINE SMOOTH",
"425 435 OFFCURVE",
"352 505 OFFCURVE",
"237 505 CURVE SMOOTH",
"122 505 OFFCURVE",
"49 435 OFFCURVE",
"49 330 CURVE SMOOTH",
"49 170 LINE SMOOTH",
"49 65 OFFCURVE",
"122 -5 OFFCURVE",
"237 -5 CURVE SMOOTH"
);
}
);
width = 467;
}
);
unicode = 0065;
},
{
color = 1;
glyphname = f;
lastChange = "2016-10-23 07:17:50 +0000";
layers = (
{
layerId = "262880E7-CFE1-4BDA-902E-E24798F3240A";
paths = (
{
closed = 1;
nodes = (
"142 0 LINE",
"142 550 LINE SMOOTH",
"142 637 OFFCURVE",
"195 689 OFFCURVE",
"291 689 CURVE",
"291 710 LINE",
"181 710 OFFCURVE",
"120 650 OFFCURVE",
"120 550 CURVE SMOOTH",
"120 0 LINE"
);
},
{
closed = 1;
nodes = (
"261 479 LINE",
"261 500 LINE",
"41 500 LINE",
"41 479 LINE"
);
}
);
width = 285;
},
{
layerId = "4E2227F3-52E4-4048-A8EE-327B486EF0A4";
paths = (
{
closed = 1;
nodes = (
"242 0 LINE",
"242 532 LINE",
"242 552 OFFCURVE",
"264 558 OFFCURVE",
"286 558 CURVE",
"286 700 LINE",
"138 707 OFFCURVE",
"54 697 OFFCURVE",
"54 556 CURVE",
"54 0 LINE"
);
},
{
closed = 1;
nodes = (
"306 340 LINE",
"306 500 LINE",
"0 500 LINE",
"0 340 LINE"
);
}
);
width = 312;
}
);
unicode = 0066;
},
{
color = 1;
glyphname = g;
lastChange = "2016-10-23 07:15:34 +0000";
layers = (
{
layerId = "262880E7-CFE1-4BDA-902E-E24798F3240A";
paths = (
{
closed = 1;
nodes = (
"340 -5 OFFCURVE",
"403 58 OFFCURVE",
"403 161 CURVE SMOOTH",
"403 339 LINE SMOOTH",
"403 442 OFFCURVE",
"340 505 OFFCURVE",
"238 505 CURVE SMOOTH",
"135 505 OFFCURVE",
"72 442 OFFCURVE",
"72 339 CURVE SMOOTH",
"72 161 LINE SMOOTH",
"72 58 OFFCURVE",
"135 -5 OFFCURVE",
"238 -5 CURVE SMOOTH"
);
},
{
closed = 1;
nodes = (
"149 16 OFFCURVE",
"94 70 OFFCURVE",
"94 158 CURVE SMOOTH",
"94 342 LINE SMOOTH",
"94 430 OFFCURVE",
"149 484 OFFCURVE",
"239 484 CURVE SMOOTH",
"329 484 OFFCURVE",
"384 429 OFFCURVE",
"384 342 CURVE SMOOTH",
"384 158 LINE SMOOTH",
"384 70 OFFCURVE",
"329 16 OFFCURVE",
"239 16 CURVE SMOOTH"
);
},
{
closed = 1;
nodes = (
"333 -206 OFFCURVE",
"406 -140 OFFCURVE",
"406 0 CURVE SMOOTH",
"406 500 LINE",
"384 500 LINE",
"384 0 LINE SMOOTH",
"384 -126 OFFCURVE",
"318 -185 OFFCURVE",
"199 -181 CURVE",
"199 -202 LINE"
);
}
);
width = 502;
},
{
layerId = "4E2227F3-52E4-4048-A8EE-327B486EF0A4";
paths = (
{
closed = 1;
nodes = (
"288 1 OFFCURVE",
"345 98 OFFCURVE",
"345 203 CURVE SMOOTH",
"345 324 LINE SMOOTH",
"345 429 OFFCURVE",
"278 506 OFFCURVE",
"165 506 CURVE SMOOTH",
"85 506 OFFCURVE",
"18 467 OFFCURVE",
"18 360 CURVE SMOOTH",
"18 147 LINE SMOOTH",
"18 40 OFFCURVE",
"75 1 OFFCURVE",
"155 1 CURVE SMOOTH"
);
},
{
closed = 1;
nodes = (
"218 151 OFFCURVE",
"206 163 OFFCURVE",
"206 183 CURVE SMOOTH",
"206 323 LINE SMOOTH",
"206 343 OFFCURVE",
"218 355 OFFCURVE",
"235 355 CURVE SMOOTH",
"252 355 OFFCURVE",
"264 343 OFFCURVE",
"264 323 CURVE",
"264 183 LINE",
"264 163 OFFCURVE",
"252 151 OFFCURVE",
"235 151 CURVE SMOOTH"
);
},
{
closed = 1;
nodes = (
"395 -226 OFFCURVE",
"452 -115 OFFCURVE",
"452 34 CURVE SMOOTH",
"452 500 LINE",
"264 500 LINE",
"264 34 LINE SMOOTH",
"264 -14 OFFCURVE",
"247 -44 OFFCURVE",
"103 -40 CURVE",
"103 -207 LINE"
);
}
);
width = 476;
}
);
unicode = 0067;
},
{
color = 1;
glyphname = h;
lastChange = "2016-10-23 07:15:34 +0000";
layers = (
{
layerId = "262880E7-CFE1-4BDA-902E-E24798F3240A";
paths = (
{
closed = 1;
nodes = (
"416 0 LINE",
"416 344 LINE SMOOTH",
"416 443 OFFCURVE",
"357 504 OFFCURVE",
"262 504 CURVE SMOOTH",
"160 504 OFFCURVE",
"87 443 OFFCURVE",
"87 343 CURVE",
"106 343 LINE",
"106 430 OFFCURVE",
"171 483 OFFCURVE",
"260 483 CURVE SMOOTH",
"343 483 OFFCURVE",
"394 429 OFFCURVE",
"394 341 CURVE SMOOTH",
"394 0 LINE"
);
},
{
closed = 1;
nodes = (
"106 0 LINE",
"106 700 LINE",
"84 700 LINE",
"84 0 LINE"
);
}
);
width = 488;
},
{
layerId = "4E2227F3-52E4-4048-A8EE-327B486EF0A4";
paths = (
{
closed = 1;
nodes = (
"455 1 LINE",
"455 361 LINE SMOOTH",
"455 468 OFFCURVE",
"398 507 OFFCURVE",
"318 507 CURVE SMOOTH",
"205 507 OFFCURVE",
"140 430 OFFCURVE",
"140 325 CURVE",
"209 325 LINE",
"209 345 OFFCURVE",
"221 357 OFFCURVE",
"238 357 CURVE SMOOTH",
"255 357 OFFCURVE",
"267 345 OFFCURVE",
"267 325 CURVE SMOOTH",
"267 1 LINE"
);
},
{
closed = 1;
nodes = (
"209 1 LINE",
"209 700 LINE",
"21 700 LINE",
"21 1 LINE"
);
}
);
width = 473;
}
);
unicode = 0068;
},
{
color = 1;
glyphname = i;
lastChange = "2016-10-23 07:15:34 +0000";
layers = (
{
layerId = "262880E7-CFE1-4BDA-902E-E24798F3240A";
paths = (
{
closed = 1;
nodes = (
"134 0 LINE",
"134 500 LINE",
"112 500 LINE",
"112 0 LINE"
);
},
{
closed = 1;
nodes = (
"140 659 OFFCURVE",
"154 673 OFFCURVE",
"154 690 CURVE SMOOTH",
"154 706 OFFCURVE",
"140 720 OFFCURVE",
"123 720 CURVE SMOOTH",
"106 720 OFFCURVE",
"92 706 OFFCURVE",
"92 690 CURVE SMOOTH",
"92 673 OFFCURVE",
"106 659 OFFCURVE",
"123 659 CURVE SMOOTH"
);
}
);
width = 246;
},
{
layerId = "4E2227F3-52E4-4048-A8EE-327B486EF0A4";
paths = (
{
closed = 1;
nodes = (
"212 0 LINE",
"212 500 LINE",
"24 500 LINE",
"24 0 LINE"
);
},
{
closed = 1;
nodes = (
"181 534 OFFCURVE",
"223 576 OFFCURVE",
"223 639 CURVE SMOOTH",
"223 702 OFFCURVE",
"181 744 OFFCURVE",
"118 744 CURVE SMOOTH",
"55 744 OFFCURVE",
"13 702 OFFCURVE",
"13 639 CURVE SMOOTH",
"13 576 OFFCURVE",
"55 534 OFFCURVE",
"118 534 CURVE SMOOTH"
);
}
);
width = 236;
}
);
unicode = 0069;
},
{
color = 1;
glyphname = j;
lastChange = "2016-10-23 07:15:34 +0000";
layers = (
{
layerId = "262880E7-CFE1-4BDA-902E-E24798F3240A";
paths = (
{
closed = 1;
nodes = (
"66 -211 OFFCURVE",
"118 -159 OFFCURVE",
"118 -74 CURVE SMOOTH",
"118 500 LINE",
"96 500 LINE",
"96 -74 LINE SMOOTH",
"96 -146 OFFCURVE",
"53 -190 OFFCURVE",
"-18 -190 CURVE",
"-18 -211 LINE"
);
},
{
closed = 1;
nodes = (
"126 669 OFFCURVE",
"138 681 OFFCURVE",
"138 700 CURVE SMOOTH",
"138 719 OFFCURVE",
"126 730 OFFCURVE",
"107 730 CURVE SMOOTH",
"88 730 OFFCURVE",
"76 719 OFFCURVE",
"76 700 CURVE SMOOTH",
"76 681 OFFCURVE",
"88 669 OFFCURVE",
"107 669 CURVE SMOOTH"
);
}
);
width = 214;
},
{
layerId = "4E2227F3-52E4-4048-A8EE-327B486EF0A4";
paths = (
{
closed = 1;
nodes = (
"205 -210 OFFCURVE",
"212 -120 OFFCURVE",
"212 29 CURVE SMOOTH",
"212 495 LINE",
"24 495 LINE",
"24 29 LINE SMOOTH",
"24 -19 OFFCURVE",
"7 -49 OFFCURVE",
"-77 -41 CURVE",
"-77 -201 LINE"
);
},
{
closed = 1;
nodes = (
"180 534 OFFCURVE",
"223 581 OFFCURVE",
"223 639 CURVE SMOOTH",
"223 697 OFFCURVE",
"171 743 OFFCURVE",
"118 743 CURVE SMOOTH",
"65 743 OFFCURVE",
"13 697 OFFCURVE",
"13 639 CURVE SMOOTH",
"13 581 OFFCURVE",
"56 534 OFFCURVE",
"118 534 CURVE SMOOTH"
);
}
);
width = 236;
}
);
unicode = 006A;
},
{
color = 1;
glyphname = k;
lastChange = "2016-10-23 07:15:34 +0000";
layers = (
{
guideLines = (
{
angle = 180;
position = "{283, 0}";
showMeasurement = 1;
},
{
angle = 180;
position = "{229, 332}";
showMeasurement = 1;
}
);
layerId = "262880E7-CFE1-4BDA-902E-E24798F3240A";
paths = (
{
closed = 1;
nodes = (
"349 500 LINE",
"118 269 LINE",
"118 700 LINE",
"96 700 LINE",
"96 0 LINE",
"118 0 LINE",
"118 231 LINE",
"349 0 LINE",
"375 0 LINE",
"125 250 LINE",
"375 500 LINE"
);
}
);
width = 363;
},
{
layerId = "4E2227F3-52E4-4048-A8EE-327B486EF0A4";
paths = (
{
closed = 1;
nodes = (
"272 500 LINE",
"212 355 LINE",
"212 700 LINE",
"24 700 LINE",
"24 0 LINE",
"212 0 LINE",
"212 145 LINE",
"273 0 LINE",
"473 0 LINE",
"331 260 LINE",
"470 500 LINE"
);
}
);
width = 470;
},
{
associatedMasterId = "4E2227F3-52E4-4048-A8EE-327B486EF0A4";
layerId = "3F40B02A-8325-4017-AA07-0CC2F5060827";
name = "Medium{85,100}";
paths = (
{
closed = 1;
nodes = (
"299 500 LINE",
"150 297 LINE",
"150 700 LINE",
"66 700 LINE",
"66 0 LINE",
"150 0 LINE",
"150 206 LINE",
"299 0 LINE",
"404 0 LINE",
"211 250 LINE",
"404 500 LINE"
);
}
);
width = 396;
}
);
unicode = 006B;
},
{
color = 1;
glyphname = l;
lastChange = "2016-10-23 07:15:34 +0000";
layers = (
{
layerId = "262880E7-CFE1-4BDA-902E-E24798F3240A";
paths = (
{
closed = 1;
nodes = (
"134 0 LINE",
"134 700 LINE",
"112 700 LINE",
"112 0 LINE"
);
}
);
width = 232;
},
{
layerId = "4E2227F3-52E4-4048-A8EE-327B486EF0A4";
paths = (
{
closed = 1;
nodes = (
"212 0 LINE",
"212 700 LINE",
"24 700 LINE",
"24 0 LINE"
);
}
);
width = 233;
}
);
unicode = 006C;
},
{
color = 1;
glyphname = m;
lastChange = "2016-10-23 07:15:34 +0000";
layers = (
{
layerId = "262880E7-CFE1-4BDA-902E-E24798F3240A";
paths = (
{
closed = 1;
nodes = (
"706 0 LINE",
"706 344 LINE SMOOTH",
"706 443 OFFCURVE",
"647 504 OFFCURVE",
"552 504 CURVE SMOOTH",
"450 504 OFFCURVE",
"387 443 OFFCURVE",
"387 343 CURVE",
"406 343 LINE",
"405 428 OFFCURVE",
"460 483 OFFCURVE",
"550 483 CURVE SMOOTH",
"633 483 OFFCURVE",
"684 429 OFFCURVE",
"684 341 CURVE SMOOTH",
"684 0 LINE"
);
},
{
closed = 1;
nodes = (
"106 0 LINE",
"106 500 LINE",
"84 500 LINE",
"84 0 LINE"
);
},
{
closed = 1;
nodes = (
"406 0 LINE",
"406 344 LINE SMOOTH",
"406 443 OFFCURVE",
"347 504 OFFCURVE",
"252 504 CURVE SMOOTH",
"150 504 OFFCURVE",
"87 443 OFFCURVE",
"87 343 CURVE",
"106 343 LINE",
"106 430 OFFCURVE",
"161 483 OFFCURVE",
"250 483 CURVE SMOOTH",
"333 483 OFFCURVE",
"384 429 OFFCURVE",
"384 341 CURVE SMOOTH",
"384 0 LINE"
);
}
);
width = 778;
},
{
layerId = "4E2227F3-52E4-4048-A8EE-327B486EF0A4";
paths = (
{
closed = 1;
nodes = (
"701 1 LINE",
"701 358 LINE SMOOTH",
"701 465 OFFCURVE",
"644 504 OFFCURVE",
"564 504 CURVE SMOOTH",
"451 504 OFFCURVE",
"384 427 OFFCURVE",
"384 322 CURVE",
"455 322 LINE",
"455 342 OFFCURVE",
"467 354 OFFCURVE",
"484 354 CURVE SMOOTH",
"501 354 OFFCURVE",
"513 342 OFFCURVE",
"513 322 CURVE SMOOTH",
"513 1 LINE"
);
},
{
closed = 1;
nodes = (
"209 1 LINE",
"209 501 LINE",
"21 501 LINE",
"21 1 LINE"
);
},
{
closed = 1;
nodes = (
"455 1 LINE",
"455 358 LINE SMOOTH",
"455 465 OFFCURVE",
"398 504 OFFCURVE",
"318 504 CURVE SMOOTH",
"205 504 OFFCURVE",
"138 427 OFFCURVE",
"138 322 CURVE",
"209 322 LINE",
"209 342 OFFCURVE",
"221 354 OFFCURVE",
"238 354 CURVE SMOOTH",
"255 354 OFFCURVE",
"267 342 OFFCURVE",
"267 322 CURVE SMOOTH",
"267 1 LINE"
);
}
);
width = 719;
}
);
unicode = 006D;
},
{
color = 1;
glyphname = n;
lastChange = "2016-10-23 07:15:34 +0000";
layers = (
{
layerId = "262880E7-CFE1-4BDA-902E-E24798F3240A";
paths = (
{
closed = 1;
nodes = (
"430 0 LINE",
"430 344 LINE SMOOTH",
"430 443 OFFCURVE",
"371 504 OFFCURVE",
"276 504 CURVE SMOOTH",
"174 504 OFFCURVE",
"101 443 OFFCURVE",
"101 343 CURVE",
"120 343 LINE",
"120 430 OFFCURVE",
"185 483 OFFCURVE",
"274 483 CURVE SMOOTH",
"357 483 OFFCURVE",
"408 429 OFFCURVE",
"408 341 CURVE SMOOTH",
"408 0 LINE"
);
},
{
closed = 1;
nodes = (
"120 0 LINE",
"120 500 LINE",
"98 500 LINE",
"98 0 LINE"
);
}
);
width = 514;
},
{
layerId = "4E2227F3-52E4-4048-A8EE-327B486EF0A4";
paths = (
{
closed = 1;
nodes = (
"455 1 LINE",
"455 358 LINE SMOOTH",
"455 465 OFFCURVE",
"398 504 OFFCURVE",
"318 504 CURVE SMOOTH",
"205 504 OFFCURVE",
"138 427 OFFCURVE",
"138 322 CURVE",
"209 322 LINE",
"209 342 OFFCURVE",
"221 355 OFFCURVE",
"238 355 CURVE SMOOTH",
"255 355 OFFCURVE",
"267 342 OFFCURVE",
"267 322 CURVE SMOOTH",
"267 1 LINE"
);
},
{
closed = 1;
nodes = (
"209 1 LINE",
"209 501 LINE",
"21 501 LINE",
"21 1 LINE"
);
}
);
width = 473;
}
);
unicode = 006E;
},
{
color = 1;
glyphname = o;
lastChange = "2016-10-23 07:15:34 +0000";
layers = (
{
guideLines = (
{
angle = 180;
position = "{219, 250}";
showMeasurement = 1;
},
{
angle = 120;
position = "{219, 250}";
showMeasurement = 1;
},
{
angle = 60;
position = "{219, 250}";
showMeasurement = 1;
}
);
layerId = "262880E7-CFE1-4BDA-902E-E24798F3240A";
paths = (
{
closed = 1;
nodes = (
"322 -5 OFFCURVE",
"390 61 OFFCURVE",
"390 161 CURVE SMOOTH",
"390 339 LINE SMOOTH",
"390 439 OFFCURVE",
"322 505 OFFCURVE",
"219 505 CURVE SMOOTH",
"116 505 OFFCURVE",
"48 439 OFFCURVE",
"48 339 CURVE SMOOTH",
"48 161 LINE SMOOTH",
"48 61 OFFCURVE",
"116 -5 OFFCURVE",
"219 -5 CURVE SMOOTH"
);
},
{
closed = 1;
nodes = (
"130 16 OFFCURVE",
"70 73 OFFCURVE",
"70 158 CURVE SMOOTH",
"70 342 LINE SMOOTH",
"70 427 OFFCURVE",
"130 484 OFFCURVE",
"219 484 CURVE SMOOTH",
"308 484 OFFCURVE",
"368 427 OFFCURVE",
"368 342 CURVE SMOOTH",
"368 158 LINE SMOOTH",
"368 73 OFFCURVE",
"308 16 OFFCURVE",
"219 16 CURVE SMOOTH"
);
}
);
width = 438;
},
{
layerId = "4E2227F3-52E4-4048-A8EE-327B486EF0A4";
paths = (
{
closed = 1;
nodes = (
"370 -8 OFFCURVE",
"460 68 OFFCURVE",
"460 181 CURVE SMOOTH",
"460 319 LINE SMOOTH",
"460 432 OFFCURVE",
"370 508 OFFCURVE",
"236 508 CURVE SMOOTH",
"102 508 OFFCURVE",
"12 432 OFFCURVE",
"12 319 CURVE SMOOTH",
"12 181 LINE SMOOTH",
"12 68 OFFCURVE",
"102 -8 OFFCURVE",
"236 -8 CURVE SMOOTH"
);
},
{
closed = 1;
nodes = (
"219 142 OFFCURVE",
"207 155 OFFCURVE",
"207 174 CURVE SMOOTH",
"207 326 LINE SMOOTH",
"207 345 OFFCURVE",
"219 358 OFFCURVE",
"236 358 CURVE SMOOTH",
"253 358 OFFCURVE",
"265 345 OFFCURVE",
"265 326 CURVE SMOOTH",
"265 174 LINE SMOOTH",
"265 155 OFFCURVE",
"253 142 OFFCURVE",
"236 142 CURVE SMOOTH"
);
}
);
width = 472;
}
);
unicode = 006F;
},
{
color = 1;
glyphname = p;
lastChange = "2016-10-23 07:15:34 +0000";
layers = (
{
layerId = "262880E7-CFE1-4BDA-902E-E24798F3240A";
paths = (
{
closed = 1;
nodes = (
"355 -5 OFFCURVE",
"418 58 OFFCURVE",
"418 161 CURVE SMOOTH",
"418 339 LINE SMOOTH",
"418 442 OFFCURVE",
"355 505 OFFCURVE",
"252 505 CURVE SMOOTH",
"150 505 OFFCURVE",
"87 442 OFFCURVE",
"87 339 CURVE SMOOTH",
"87 161 LINE SMOOTH",
"87 58 OFFCURVE",
"154 -5 OFFCURVE",
"252 -5 CURVE SMOOTH"
);
},
{
closed = 1;
nodes = (
"106 -200 LINE",
"106 500 LINE",
"84 500 LINE",
"84 -200 LINE"
);
},
{
closed = 1;
nodes = (
"161 16 OFFCURVE",
"106 70 OFFCURVE",
"106 158 CURVE SMOOTH",
"106 342 LINE SMOOTH",
"106 431 OFFCURVE",
"161 484 OFFCURVE",
"251 484 CURVE SMOOTH",
"341 484 OFFCURVE",
"396 430 OFFCURVE",
"396 342 CURVE SMOOTH",
"396 158 LINE SMOOTH",
"396 70 OFFCURVE",
"341 16 OFFCURVE",
"251 16 CURVE SMOOTH"
);
}
);
width = 490;
},
{
layerId = "4E2227F3-52E4-4048-A8EE-327B486EF0A4";
paths = (
{
closed = 1;
nodes = (
"378 -4 OFFCURVE",
"455 35 OFFCURVE",
"455 142 CURVE SMOOTH",
"455 358 LINE SMOOTH",
"455 465 OFFCURVE",
"388 504 OFFCURVE",
"308 504 CURVE SMOOTH",
"195 504 OFFCURVE",
"128 427 OFFCURVE",
"128 322 CURVE SMOOTH",
"128 178 LINE SMOOTH",
"128 73 OFFCURVE",
"185 -4 OFFCURVE",
"298 -4 CURVE SMOOTH"
);
},
{
closed = 1;
nodes = (
"209 -201 LINE",
"209 499 LINE",
"21 499 LINE",
"21 -201 LINE"
);
},
{
closed = 1;
nodes = (
"221 146 OFFCURVE",
"209 158 OFFCURVE",
"209 178 CURVE",
"209 322 LINE",
"209 342 OFFCURVE",
"221 354 OFFCURVE",
"238 354 CURVE SMOOTH",
"255 354 OFFCURVE",
"267 342 OFFCURVE",
"267 322 CURVE SMOOTH",
"267 178 LINE SMOOTH",
"267 158 OFFCURVE",
"255 146 OFFCURVE",
"238 146 CURVE SMOOTH"
);
}
);
width = 473;
}
);
unicode = 0070;
},
{
color = 1;
glyphname = q;
lastChange = "2016-10-23 07:15:34 +0000";
layers = (
{
layerId = "262880E7-CFE1-4BDA-902E-E24798F3240A";
paths = (
{
closed = 1;
nodes = (
"338 -5 OFFCURVE",
"403 58 OFFCURVE",
"403 161 CURVE SMOOTH",
"403 339 LINE SMOOTH",
"403 442 OFFCURVE",
"340 505 OFFCURVE",
"238 505 CURVE SMOOTH",
"135 505 OFFCURVE",
"72 442 OFFCURVE",
"72 339 CURVE SMOOTH",
"72 161 LINE SMOOTH",
"72 58 OFFCURVE",
"135 -5 OFFCURVE",
"238 -5 CURVE SMOOTH"
);
},
{
closed = 1;
nodes = (
"149 16 OFFCURVE",
"94 70 OFFCURVE",
"94 158 CURVE SMOOTH",
"94 342 LINE SMOOTH",
"94 430 OFFCURVE",
"149 484 OFFCURVE",
"239 484 CURVE SMOOTH",
"329 484 OFFCURVE",
"384 431 OFFCURVE",
"384 342 CURVE SMOOTH",
"384 158 LINE SMOOTH",
"384 70 OFFCURVE",
"329 16 OFFCURVE",
"239 16 CURVE SMOOTH"
);
},
{
closed = 1;
nodes = (
"406 -200 LINE",
"406 500 LINE",
"384 500 LINE",
"384 -200 LINE"
);
}
);
width = 490;
},
{
layerId = "4E2227F3-52E4-4048-A8EE-327B486EF0A4";
paths = (
{
closed = 1;
nodes = (
"288 -4 OFFCURVE",
"345 73 OFFCURVE",
"345 178 CURVE SMOOTH",
"345 322 LINE SMOOTH",
"345 427 OFFCURVE",
"278 504 OFFCURVE",
"165 504 CURVE SMOOTH",
"85 504 OFFCURVE",
"18 465 OFFCURVE",
"18 358 CURVE SMOOTH",
"18 142 LINE SMOOTH",
"18 35 OFFCURVE",
"95 -4 OFFCURVE",
"175 -4 CURVE SMOOTH"
);
},
{
closed = 1;
nodes = (
"218 146 OFFCURVE",
"206 158 OFFCURVE",
"206 178 CURVE SMOOTH",
"206 322 LINE SMOOTH",
"206 342 OFFCURVE",
"218 354 OFFCURVE",
"235 354 CURVE SMOOTH",
"252 354 OFFCURVE",
"264 342 OFFCURVE",
"264 322 CURVE",
"264 178 LINE",
"264 158 OFFCURVE",
"252 146 OFFCURVE",
"235 146 CURVE SMOOTH"
);
},
{
closed = 1;
nodes = (
"452 -201 LINE",
"452 499 LINE",
"264 499 LINE",
"264 -201 LINE"
);
}
);
width = 473;
}
);
unicode = 0071;
},
{
color = 1;
glyphname = r;
lastChange = "2016-10-23 07:15:34 +0000";
layers = (
{
layerId = "262880E7-CFE1-4BDA-902E-E24798F3240A";
paths = (
{
closed = 1;
nodes = (
"120 341 LINE",
"120 429 OFFCURVE",
"177 483 OFFCURVE",
"259 483 CURVE SMOOTH",
"289 483 OFFCURVE",
"304 476 OFFCURVE",
"322 465 CURVE",
"335 483 LINE",
"314 495 OFFCURVE",
"296 504 OFFCURVE",
"260 504 CURVE SMOOTH",
"166 504 OFFCURVE",
"105 441 OFFCURVE",
"105 341 CURVE"
);
},
{
closed = 1;
nodes = (
"120 0 LINE",
"120 500 LINE",
"98 500 LINE",
"98 0 LINE"
);
}
);
width = 363;
},
{
layerId = "4E2227F3-52E4-4048-A8EE-327B486EF0A4";
paths = (
{
closed = 1;
nodes = (
"209 272 LINE",
"209 293 OFFCURVE",
"226 317 OFFCURVE",
"249 326 CURVE SMOOTH",
"275 336 OFFCURVE",
"312 332 OFFCURVE",
"322 324 CURVE",
"348 485 LINE",
"329 505 OFFCURVE",
"313 506 OFFCURVE",
"303 506 CURVE SMOOTH",
"186 506 OFFCURVE",
"158 371 OFFCURVE",
"158 272 CURVE"
);
},
{
closed = 1;
nodes = (
"209 1 LINE",
"209 501 LINE",
"21 501 LINE",
"21 1 LINE"
);
}
);
width = 354;
}
);
unicode = 0072;
},
{
color = 1;
glyphname = s;
lastChange = "2016-10-23 07:16:50 +0000";
layers = (
{
layerId = "262880E7-CFE1-4BDA-902E-E24798F3240A";
paths = (
{
closed = 1;
nodes = (
"326 -4 OFFCURVE",
"386 43 OFFCURVE",
"386 123 CURVE SMOOTH",
"386 211 OFFCURVE",
"313 231 OFFCURVE",
"222 263 CURVE SMOOTH",
"129 295 OFFCURVE",
"84 317 OFFCURVE",
"84 378 CURVE SMOOTH",
"84 443 OFFCURVE",
"135 483 OFFCURVE",
"221 483 CURVE SMOOTH",
"310 483 OFFCURVE",
"362 441 OFFCURVE",
"362 369 CURVE SMOOTH",
"362 344 LINE",
"384 344 LINE",
"384 369 LINE SMOOTH",
"384 454 OFFCURVE",
"324 504 OFFCURVE",
"222 504 CURVE SMOOTH",
"121 504 OFFCURVE",
"62 456 OFFCURVE",
"62 378 CURVE SMOOTH",
"62 295 OFFCURVE",
"129 273 OFFCURVE",
"218 242 CURVE SMOOTH",
"313 209 OFFCURVE",
"364 189 OFFCURVE",
"364 123 CURVE SMOOTH",
"364 57 OFFCURVE",
"312 17 OFFCURVE",
"224 17 CURVE SMOOTH",
"135 17 OFFCURVE",
"82 57 OFFCURVE",
"82 126 CURVE SMOOTH",
"82 157 LINE",
"60 157 LINE",
"60 126 LINE SMOOTH",
"60 44 OFFCURVE",
"121 -4 OFFCURVE",
"224 -4 CURVE SMOOTH"
);
}
);
width = 446;
},
{
layerId = "4E2227F3-52E4-4048-A8EE-327B486EF0A4";
paths = (
{
closed = 1;
nodes = (
"366 -8 OFFCURVE",
"447 34 OFFCURVE",
"447 145 CURVE SMOOTH",
"447 236 OFFCURVE",
"393 266 OFFCURVE",
"278 299 CURVE SMOOTH",
"233 312 OFFCURVE",
"200 319 OFFCURVE",
"200 336 CURVE SMOOTH",
"200 346 OFFCURVE",
"210 352 OFFCURVE",
"224 352 CURVE SMOOTH",
"239 352 OFFCURVE",
"250 344 OFFCURVE",
"250 329 CURVE SMOOTH",
"250 328 LINE",
"438 328 LINE",
"438 348 LINE SMOOTH",
"438 453 OFFCURVE",
"366 507 OFFCURVE",
"229 507 CURVE SMOOTH",
"85 507 OFFCURVE",
"14 447 OFFCURVE",
"14 344 CURVE SMOOTH",
"14 243 OFFCURVE",
"85 211 OFFCURVE",
"181 182 CURVE SMOOTH",
"228 168 OFFCURVE",
"249 163 OFFCURVE",
"249 149 CURVE SMOOTH",
"249 140 OFFCURVE",
"240 133 OFFCURVE",
"229 133 CURVE SMOOTH",
"216 133 OFFCURVE",
"203 143 OFFCURVE",
"203 159 CURVE SMOOTH",
"203 160 LINE",
"12 163 LINE",
"12 147 LINE",
"25 38 OFFCURVE",
"90 -8 OFFCURVE",
"231 -8 CURVE SMOOTH"
);
}
);
width = 459;
},
{
associatedMasterId = "4E2227F3-52E4-4048-A8EE-327B486EF0A4";
layerId = "441F9B22-0419-40BC-A36F-3C9E4C117ED8";
name = "Medium{85,100}";
paths = (
{
closed = 1;
nodes = (
"328 -4 OFFCURVE",
"396 46 OFFCURVE",
"396 132 CURVE SMOOTH",
"396 224 OFFCURVE",
"326 253 OFFCURVE",
"233 283 CURVE SMOOTH",
"152 309 OFFCURVE",
"114 318 OFFCURVE",
"114 363 CURVE SMOOTH",
"114 406 OFFCURVE",
"149 432 OFFCURVE",
"209 432 CURVE SMOOTH",
"272 432 OFFCURVE",
"309 402 OFFCURVE",
"309 350 CURVE SMOOTH",
"309 336 LINE",
"391 336 LINE",
"391 361 LINE SMOOTH",
"391 451 OFFCURVE",
"325 504 OFFCURVE",
"212 504 CURVE SMOOTH",
"99 504 OFFCURVE",
"32 453 OFFCURVE",
"32 367 CURVE SMOOTH",
"32 278 OFFCURVE",
"98 244 OFFCURVE",
"192 214 CURVE SMOOTH",
"267 190 OFFCURVE",
"310 187 OFFCURVE",
"310 138 CURVE SMOOTH",
"310 96 OFFCURVE",
"275 71 OFFCURVE",
"215 71 CURVE SMOOTH",
"149 71 OFFCURVE",
"110 100 OFFCURVE",
"110 150 CURVE SMOOTH",
"110 162 LINE",
"30 162 LINE",
"30 134 LINE SMOOTH",
"30 47 OFFCURVE",
"97 -4 OFFCURVE",
"211 -4 CURVE SMOOTH"
);
}
);
width = 426;
}
);
unicode = 0073;
},
{
color = 1;
glyphname = t;
lastChange = "2016-10-23 07:17:58 +0000";
layers = (
{
layerId = "262880E7-CFE1-4BDA-902E-E24798F3240A";
paths = (
{
closed = 1;
nodes = (
"288 0 LINE",
"288 21 LINE",
"246 21 LINE SMOOTH",
"165 21 OFFCURVE",
"142 57 OFFCURVE",
"142 153 CURVE SMOOTH",
"142 610 LINE",
"120 610 LINE",
"120 153 LINE SMOOTH",
"120 43 OFFCURVE",
"152 0 OFFCURVE",
"246 0 CURVE SMOOTH"
);
},
{
closed = 1;
nodes = (
"274 479 LINE",
"274 500 LINE",
"46 500 LINE",
"46 479 LINE"
);
}
);
width = 312;
},
{
layerId = "4E2227F3-52E4-4048-A8EE-327B486EF0A4";
paths = (
{
closed = 1;
nodes = (
"309 0 LINE",
"309 169 LINE",
"298 169 LINE",
"243 169 OFFCURVE",
"238 180 OFFCURVE",
"238 229 CURVE SMOOTH",
"242 646 LINE",
"54 646 LINE",
"50 156 LINE SMOOTH",
"49 5 OFFCURVE",
"107 -14 OFFCURVE",
"288 0 CURVE"
);
},
{
closed = 1;
nodes = (
"318 340 LINE",
"318 500 LINE",
"0 500 LINE",
"0 340 LINE"
);
}
);
width = 324;
}
);
unicode = 0074;
},
{
color = 1;
glyphname = u;
lastChange = "2016-10-23 07:15:34 +0000";
layers = (
{
layerId = "262880E7-CFE1-4BDA-902E-E24798F3240A";
paths = (
{
closed = 1;
nodes = (
"354 -4 OFFCURVE",
"417 57 OFFCURVE",
"417 157 CURVE",
"398 157 LINE",
"398 70 OFFCURVE",
"343 17 OFFCURVE",
"254 17 CURVE SMOOTH",
"171 17 OFFCURVE",
"120 71 OFFCURVE",
"120 159 CURVE SMOOTH",
"120 500 LINE",
"98 500 LINE",
"98 156 LINE SMOOTH",
"98 57 OFFCURVE",
"157 -4 OFFCURVE",
"252 -4 CURVE SMOOTH"
);
},
{
closed = 1;
nodes = (
"420 4 LINE",
"420 500 LINE",
"398 500 LINE",
"398 4 LINE"
);
}
);
width = 504;
},
{
layerId = "4E2227F3-52E4-4048-A8EE-327B486EF0A4";
paths = (
{
closed = 1;
nodes = (
"253 -5 OFFCURVE",
"346 70 OFFCURVE",
"346 175 CURVE",
"267 175 LINE",
"267 155 OFFCURVE",
"255 143 OFFCURVE",
"238 143 CURVE SMOOTH",
"221 143 OFFCURVE",
"209 155 OFFCURVE",
"209 175 CURVE SMOOTH",
"209 499 LINE",
"21 499 LINE",
"21 155 LINE SMOOTH",
"21 44 OFFCURVE",
"63 -5 OFFCURVE",
"148 -5 CURVE SMOOTH"
);
},
{
closed = 1;
nodes = (
"455 -1 LINE",
"455 499 LINE",
"267 499 LINE",
"267 -1 LINE"
);
}
);
width = 473;
}
);
unicode = 0075;
},
{
color = 1;
glyphname = v;
lastChange = "2016-10-23 07:15:34 +0000";
layers = (
{
layerId = "262880E7-CFE1-4BDA-902E-E24798F3240A";
paths = (
{
closed = 1;
nodes = (
"208 0 LINE",
"380 500 LINE",
"355 500 LINE",
"197 33 LINE",
"39 500 LINE",
"14 500 LINE",
"186 0 LINE"
);
}
);
width = 394;
},
{
layerId = "4E2227F3-52E4-4048-A8EE-327B486EF0A4";
paths = (
{
closed = 1;
nodes = (
"332 -2 LINE",
"466 498 LINE",
"280 500 LINE",
"236 232 LINE",
"192 500 LINE",
"3 500 LINE",
"137 0 LINE"
);
}
);
width = 469;
}
);
unicode = 0076;
},
{
color = 1;
glyphname = w;
lastChange = "2016-10-23 07:17:41 +0000";
layers = (
{
layerId = "262880E7-CFE1-4BDA-902E-E24798F3240A";
paths = (
{
closed = 1;
nodes = (
"165 0 LINE",
"294 461 LINE",
"424 0 LINE",
"446 0 LINE",
"588 500 LINE",
"566 500 LINE",
"436 27 LINE",
"306 500 LINE",
"285 500 LINE",
"155 27 LINE",
"25 500 LINE",
"0 500 LINE",
"143 0 LINE"
);
}
);
width = 588;
},
{
layerId = "4E2227F3-52E4-4048-A8EE-327B486EF0A4";
paths = (
{
closed = 1;
nodes = (
"289 -2 LINE",
"330 211 LINE",
"371 0 LINE",
"526 -2 LINE",
"660 498 LINE",
"474 500 LINE",
"430 232 LINE",
"386 500 LINE",
"277 500 LINE",
"233 232 LINE",
"189 500 LINE",
"0 500 LINE",
"134 0 LINE"
);
}
);
width = 660;
}
);
unicode = 0077;
},
{
color = 1;
glyphname = x;
lastChange = "2016-10-23 06:46:34 +0000";
layers = (
{
layerId = "262880E7-CFE1-4BDA-902E-E24798F3240A";
paths = (
{
closed = 1;
nodes = (
"25 0 LINE",
"184 233 LINE",
"343 0 LINE",
"368 0 LINE",
"195 250 LINE",
"368 500 LINE",
"343 500 LINE",
"184 267 LINE",
"25 500 LINE",
"0 500 LINE",
"173 250 LINE",
"0 0 LINE"
);
}
);
width = 368;
},
{
layerId = "4E2227F3-52E4-4048-A8EE-327B486EF0A4";
paths = (
{
closed = 1;
nodes = (
"198 0 LINE",
"233 98 LINE",
"268 0 LINE",
"466 0 LINE",
"320 250 LINE",
"466 500 LINE",
"268 500 LINE",
"233 408 LINE",
"198 500 LINE",
"0 500 LINE",
"146 250 LINE",
"0 0 LINE"
);
}
);
width = 466;
}
);
unicode = 0078;
},
{
color = 1;
glyphname = y;
lastChange = "2016-10-23 07:15:34 +0000";
layers = (
{
layerId = "262880E7-CFE1-4BDA-902E-E24798F3240A";
paths = (
{
closed = 1;
nodes = (
"126 -200 OFFCURVE",
"151 -172 OFFCURVE",
"188 -62 CURVE SMOOTH",
"378 500 LINE",
"356 500 LINE",
"199 27 LINE",
"36 500 LINE",
"14 500 LINE",
"189 0 LINE",
"171 -56 LINE SMOOTH",
"139 -157 OFFCURVE",
"114 -179 OFFCURVE",
"51 -179 CURVE",
"51 -200 LINE"
);
}
);
width = 392;
},
{
layerId = "4E2227F3-52E4-4048-A8EE-327B486EF0A4";
paths = (
{
closed = 1;
nodes = (
"256 -198 OFFCURVE",
"288 -143 OFFCURVE",
"330 -2 CURVE",
"466 498 LINE",
"280 500 LINE",
"236 232 LINE",
"192 500 LINE",
"3 500 LINE",
"137 0 LINE",
"137 -2 LINE SMOOTH",
"137 -23 OFFCURVE",
"138 -54 OFFCURVE",
"55 -52 CURVE",
"55 -198 LINE"
);
}
);
width = 469;
}
);
unicode = 0079;
},
{
color = 1;
glyphname = z;
lastChange = "2016-10-23 07:15:34 +0000";
layers = (
{
layerId = "262880E7-CFE1-4BDA-902E-E24798F3240A";
paths = (
{
closed = 1;
nodes = (
"346 0 LINE",
"346 21 LINE",
"36 21 LINE",
"356 479 LINE",
"356 500 LINE",
"16 500 LINE",
"16 479 LINE",
"332 479 LINE",
"12 21 LINE",
"12 0 LINE"
);
}
);
width = 368;
},
{
layerId = "4E2227F3-52E4-4048-A8EE-327B486EF0A4";
paths = (
{
closed = 1;
nodes = (
"366 0 LINE",
"366 150 LINE",
"185 150 LINE",
"373 351 LINE",
"373 500 LINE",
"18 500 LINE",
"18 351 LINE",
"189 351 LINE",
"3 150 LINE",
"3 0 LINE"
);
}
);
width = 379;
}
);
unicode = 007A;
},
{
color = 1;
glyphname = zero;
lastChange = "2016-10-20 05:19:26 +0000";
layers = (
{
layerId = "262880E7-CFE1-4BDA-902E-E24798F3240A";
paths = (
{
closed = 1;
nodes = (
"374 -9 OFFCURVE",
"429 45 OFFCURVE",
"429 150 CURVE SMOOTH",
"429 550 LINE SMOOTH",
"429 655 OFFCURVE",
"374 709 OFFCURVE",
"269 709 CURVE SMOOTH",
"164 709 OFFCURVE",
"109 655 OFFCURVE",
"109 550 CURVE SMOOTH",
"109 150 LINE SMOOTH",
"109 45 OFFCURVE",
"164 -9 OFFCURVE",
"269 -9 CURVE SMOOTH"
);
},
{
closed = 1;
nodes = (
"178 11 OFFCURVE",
"131 58 OFFCURVE",
"131 150 CURVE SMOOTH",
"131 550 LINE SMOOTH",
"131 642 OFFCURVE",
"178 690 OFFCURVE",
"269 690 CURVE SMOOTH",
"360 690 OFFCURVE",
"407 642 OFFCURVE",
"407 550 CURVE SMOOTH",
"407 150 LINE SMOOTH",
"407 58 OFFCURVE",
"360 11 OFFCURVE",
"269 11 CURVE SMOOTH"
);
}
);
width = 538;
},
{
layerId = "4E2227F3-52E4-4048-A8EE-327B486EF0A4";
width = 538;
}
);
unicode = 0030;
},
{
color = 1;
glyphname = one;
lastChange = "2016-10-20 05:19:28 +0000";
layers = (
{
layerId = "262880E7-CFE1-4BDA-902E-E24798F3240A";
paths = (
{
closed = 1;
nodes = (
"142 0 LINE",
"142 700 LINE",
"120 700 LINE",
"120 0 LINE"
);
},
{
closed = 1;
nodes = (
"79 647 LINE",
"120 679 LINE",
"120 700 LINE",
"79 668 LINE"
);
}
);
width = 260;
},
{
layerId = "4E2227F3-52E4-4048-A8EE-327B486EF0A4";
width = 260;
}
);
unicode = 0031;
},
{
color = 1;
glyphname = two;
lastChange = "2016-10-20 05:19:29 +0000";
layers = (
{
layerId = "262880E7-CFE1-4BDA-902E-E24798F3240A";
paths = (
{
closed = 1;
nodes = (
"375 0 LINE",
"375 21 LINE",
"72 21 LINE",
"312 364 LINE SMOOTH",
"350 419 OFFCURVE",
"374 470 OFFCURVE",
"374 530 CURVE SMOOTH",
"374 615 OFFCURVE",
"325 705 OFFCURVE",
"211 705 CURVE SMOOTH",
"106 705 OFFCURVE",
"43 635 OFFCURVE",
"43 500 CURVE",
"43 479 LINE",
"65 479 LINE",
"65 498 LINE SMOOTH",
"65 616 OFFCURVE",
"119 684 OFFCURVE",
"210 684 CURVE SMOOTH",
"298 684 OFFCURVE",
"352 620 OFFCURVE",
"352 528 CURVE SMOOTH",
"352 476 OFFCURVE",
"335 434 OFFCURVE",
"307 395 CURVE SMOOTH",
"43 21 LINE",
"43 0 LINE"
);
}
);
width = 423;
},
{
layerId = "4E2227F3-52E4-4048-A8EE-327B486EF0A4";
width = 423;
}
);
unicode = 0032;
},
{
color = 1;
glyphname = eight;
lastChange = "2016-10-20 05:19:41 +0000";
layers = (
{
layerId = "262880E7-CFE1-4BDA-902E-E24798F3240A";
paths = (
{
closed = 1;
nodes = (
"365 -18 OFFCURVE",
"420 36 OFFCURVE",
"420 141 CURVE SMOOTH",
"420 225 LINE SMOOTH",
"420 330 OFFCURVE",
"365 384 OFFCURVE",
"260 384 CURVE SMOOTH",
"155 384 OFFCURVE",
"100 330 OFFCURVE",
"100 225 CURVE SMOOTH",
"100 141 LINE SMOOTH",
"100 36 OFFCURVE",
"155 -18 OFFCURVE",
"260 -18 CURVE SMOOTH"
);
},
{
closed = 1;
nodes = (
"169 2 OFFCURVE",
"122 49 OFFCURVE",
"122 141 CURVE SMOOTH",
"122 225 LINE SMOOTH",
"122 317 OFFCURVE",
"169 365 OFFCURVE",
"260 365 CURVE SMOOTH",
"351 365 OFFCURVE",
"398 317 OFFCURVE",
"398 225 CURVE SMOOTH",
"398 141 LINE SMOOTH",
"398 49 OFFCURVE",
"351 2 OFFCURVE",
"260 2 CURVE SMOOTH"
);
},
{
closed = 1;
nodes = (
"365 364 OFFCURVE",
"420 418 OFFCURVE",
"420 523 CURVE SMOOTH",
"420 548 LINE SMOOTH",
"420 653 OFFCURVE",
"365 707 OFFCURVE",
"260 707 CURVE SMOOTH",
"155 707 OFFCURVE",
"100 653 OFFCURVE",
"100 548 CURVE SMOOTH",
"100 523 LINE SMOOTH",
"100 418 OFFCURVE",
"155 364 OFFCURVE",
"260 364 CURVE SMOOTH"
);
},
{
closed = 1;
nodes = (
"169 384 OFFCURVE",
"122 431 OFFCURVE",
"122 523 CURVE SMOOTH",
"122 548 LINE SMOOTH",
"122 640 OFFCURVE",
"169 688 OFFCURVE",
"260 688 CURVE SMOOTH",
"351 688 OFFCURVE",
"398 640 OFFCURVE",
"398 548 CURVE SMOOTH",
"398 523 LINE SMOOTH",
"398 431 OFFCURVE",
"351 384 OFFCURVE",
"260 384 CURVE SMOOTH"
);
}
);
width = 520;
},
{
layerId = "4E2227F3-52E4-4048-A8EE-327B486EF0A4";
width = 520;
}
);
unicode = 0038;
},
{
color = 1;
glyphname = colon;
lastChange = "2016-10-20 07:13:30 +0000";
layers = (
{
layerId = "262880E7-CFE1-4BDA-902E-E24798F3240A";
paths = (
{
closed = 1;
nodes = (
"181 350 OFFCURVE",
"200 368 OFFCURVE",
"200 391 CURVE SMOOTH",
"200 413 OFFCURVE",
"181 431 OFFCURVE",
"159 431 CURVE SMOOTH",
"137 431 OFFCURVE",
"118 413 OFFCURVE",
"118 391 CURVE SMOOTH",
"118 368 OFFCURVE",
"136 350 OFFCURVE",
"159 350 CURVE SMOOTH"
);
},
{
closed = 1;
nodes = (
"181 37 OFFCURVE",
"200 55 OFFCURVE",
"200 78 CURVE SMOOTH",
"200 100 OFFCURVE",
"181 118 OFFCURVE",
"159 118 CURVE SMOOTH",
"137 118 OFFCURVE",
"118 100 OFFCURVE",
"118 78 CURVE SMOOTH",
"118 55 OFFCURVE",
"136 37 OFFCURVE",
"159 37 CURVE SMOOTH"
);
}
);
width = 318;
},
{
layerId = "4E2227F3-52E4-4048-A8EE-327B486EF0A4";
width = 318;
}
);
unicode = 003A;
},
{
color = 1;
glyphname = comma;
lastChange = "2016-10-20 07:13:34 +0000";
layers = (
{
layerId = "262880E7-CFE1-4BDA-902E-E24798F3240A";
paths = (
{
closed = 1;
nodes = (
"187 153 LINE",
"165 153 LINE",
"110 -66 LINE",
"132 -66 LINE"
);
}
);
width = 298;
},
{
layerId = "4E2227F3-52E4-4048-A8EE-327B486EF0A4";
width = 298;
}
);
unicode = 002C;
},
{
color = 1;
glyphname = exclam;
lastChange = "2016-10-20 07:13:36 +0000";
layers = (
{
layerId = "262880E7-CFE1-4BDA-902E-E24798F3240A";
paths = (
{
closed = 1;
nodes = (
"163 220 LINE",
"163 700 LINE",
"141 700 LINE",
"141 220 LINE"
);
},
{
closed = 1;
nodes = (
"171 5 OFFCURVE",
"190 23 OFFCURVE",
"190 46 CURVE SMOOTH",
"190 68 OFFCURVE",
"171 86 OFFCURVE",
"149 86 CURVE SMOOTH",
"127 86 OFFCURVE",
"108 68 OFFCURVE",
"108 46 CURVE SMOOTH",
"108 23 OFFCURVE",
"126 5 OFFCURVE",
"149 5 CURVE SMOOTH"
);
}
);
width = 302;
},
{
layerId = "4E2227F3-52E4-4048-A8EE-327B486EF0A4";
width = 302;
}
);
unicode = 0021;
},
{
color = 1;
glyphname = period;
lastChange = "2016-10-20 06:27:46 +0000";
layers = (
{
layerId = "262880E7-CFE1-4BDA-902E-E24798F3240A";
paths = (
{
closed = 1;
nodes = (
"177 3 OFFCURVE",
"191 17 OFFCURVE",
"191 34 CURVE SMOOTH",
"191 50 OFFCURVE",
"177 64 OFFCURVE",
"160 64 CURVE SMOOTH",
"143 64 OFFCURVE",
"129 50 OFFCURVE",
"129 34 CURVE SMOOTH",
"129 17 OFFCURVE",
"143 3 OFFCURVE",
"160 3 CURVE SMOOTH"
);
}
);
width = 320;
},
{
layerId = "4E2227F3-52E4-4048-A8EE-327B486EF0A4";
paths = (
{
closed = 1;
nodes = (
"223 0 OFFCURVE",
"266 47 OFFCURVE",
"266 105 CURVE SMOOTH",
"266 163 OFFCURVE",
"214 209 OFFCURVE",
"161 209 CURVE SMOOTH",
"108 209 OFFCURVE",
"56 163 OFFCURVE",
"56 105 CURVE SMOOTH",
"56 47 OFFCURVE",
"99 0 OFFCURVE",
"161 0 CURVE SMOOTH"
);
}
);
width = 320;
}
);
unicode = 002E;
},
{
color = 1;
glyphname = question;
lastChange = "2016-10-20 07:13:39 +0000";
layers = (
{
layerId = "262880E7-CFE1-4BDA-902E-E24798F3240A";
paths = (
{
closed = 1;
nodes = (
"227 239 LINE",
"197 243 OFFCURVE",
"182 254 OFFCURVE",
"182 275 CURVE SMOOTH",
"182 346 OFFCURVE",
"363 378 OFFCURVE",
"363 546 CURVE SMOOTH",
"363 645 OFFCURVE",
"300 709 OFFCURVE",
"206 709 CURVE SMOOTH",
"111 709 OFFCURVE",
"47 645 OFFCURVE",
"47 550 CURVE SMOOTH",
"47 500 LINE",
"69 500 LINE",
"69 550 LINE SMOOTH",
"69 633 OFFCURVE",
"124 688 OFFCURVE",
"206 688 CURVE SMOOTH",
"287 688 OFFCURVE",
"341 633 OFFCURVE",
"341 549 CURVE SMOOTH",
"341 395 OFFCURVE",
"158 364 OFFCURVE",
"158 271 CURVE SMOOTH",
"158 235 OFFCURVE",
"186 213 OFFCURVE",
"227 215 CURVE"
);
},
{
closed = 1;
nodes = (
"213 5 OFFCURVE",
"232 23 OFFCURVE",
"232 46 CURVE SMOOTH",
"232 68 OFFCURVE",
"213 86 OFFCURVE",
"191 86 CURVE SMOOTH",
"169 86 OFFCURVE",
"150 68 OFFCURVE",
"150 46 CURVE SMOOTH",
"150 23 OFFCURVE",
"168 5 OFFCURVE",
"191 5 CURVE SMOOTH"
);
}
);
width = 413;
},
{
associatedMasterId = "262880E7-CFE1-4BDA-902E-E24798F3240A";
layerId = "E56F6CC4-F9B5-46E1-BC01-FC7B34A3882B";
name = "DemiBold {119,100}";
paths = (
{
closed = 1;
nodes = (
"344 261 LINE",
"333 262 OFFCURVE",
"324 261 OFFCURVE",
"324 276 CURVE SMOOTH",
"324 341 OFFCURVE",
"489 355 OFFCURVE",
"489 519 CURVE SMOOTH",
"489 634 OFFCURVE",
"409 710 OFFCURVE",
"286 710 CURVE SMOOTH",
"161 710 OFFCURVE",
"74 630 OFFCURVE",
"74 512 CURVE SMOOTH",
"74 486 LINE",
"198 481 LINE",
"198 512 LINE SMOOTH",
"198 562 OFFCURVE",
"231 597 OFFCURVE",
"283 597 CURVE SMOOTH",
"333 597 OFFCURVE",
"364 565 OFFCURVE",
"364 516 CURVE SMOOTH",
"364 401 OFFCURVE",
"194 408 OFFCURVE",
"194 270 CURVE SMOOTH",
"194 214 OFFCURVE",
"222 166 OFFCURVE",
"332 182 CURVE"
);
},
{
closed = 1;
nodes = (
"313 -1 OFFCURVE",
"348 32 OFFCURVE",
"348 74 CURVE SMOOTH",
"348 115 OFFCURVE",
"313 148 OFFCURVE",
"272 148 CURVE SMOOTH",
"232 148 OFFCURVE",
"197 115 OFFCURVE",
"197 74 CURVE SMOOTH",
"197 32 OFFCURVE",
"230 -1 OFFCURVE",
"272 -1 CURVE SMOOTH"
);
}
);
width = 539;
},
{
associatedMasterId = "262880E7-CFE1-4BDA-902E-E24798F3240A";
layerId = "4A9C7B17-E806-4997-91E5-397A76494BAB";
name = "DemiBold {119,100}";
paths = (
{
closed = 1;
nodes = (
"344 261 LINE",
"333 262 OFFCURVE",
"324 261 OFFCURVE",
"324 276 CURVE SMOOTH",
"324 341 OFFCURVE",
"489 355 OFFCURVE",
"489 519 CURVE SMOOTH",
"489 634 OFFCURVE",
"409 710 OFFCURVE",
"286 710 CURVE SMOOTH",
"161 710 OFFCURVE",
"74 630 OFFCURVE",
"74 512 CURVE SMOOTH",
"74 486 LINE",
"198 481 LINE",
"198 512 LINE SMOOTH",
"198 562 OFFCURVE",
"231 597 OFFCURVE",
"283 597 CURVE SMOOTH",
"333 597 OFFCURVE",
"364 565 OFFCURVE",
"364 516 CURVE SMOOTH",
"364 401 OFFCURVE",
"194 408 OFFCURVE",
"194 270 CURVE SMOOTH",
"194 214 OFFCURVE",
"222 166 OFFCURVE",
"332 182 CURVE"
);
},
{
closed = 1;
nodes = (
"313 -1 OFFCURVE",
"348 32 OFFCURVE",
"348 74 CURVE SMOOTH",
"348 115 OFFCURVE",
"313 148 OFFCURVE",
"272 148 CURVE SMOOTH",
"232 148 OFFCURVE",
"197 115 OFFCURVE",
"197 74 CURVE SMOOTH",
"197 32 OFFCURVE",
"230 -1 OFFCURVE",
"272 -1 CURVE SMOOTH"
);
}
);
width = 539;
},
{
layerId = "4E2227F3-52E4-4048-A8EE-327B486EF0A4";
width = 413;
}
);
unicode = 003F;
},
{
color = 1;
glyphname = quotedbl;
lastChange = "2016-10-20 07:13:44 +0000";
layers = (
{
layerId = "262880E7-CFE1-4BDA-902E-E24798F3240A";
paths = (
{
closed = 1;
nodes = (
"269 500 LINE",
"269 692 LINE",
"247 692 LINE",
"247 500 LINE"
);
},
{
closed = 1;
nodes = (
"159 500 LINE",
"159 692 LINE",
"137 692 LINE",
"137 500 LINE"
);
}
);
width = 406;
},
{
layerId = "4E2227F3-52E4-4048-A8EE-327B486EF0A4";
width = 406;
}
);
unicode = 0022;
},
{
color = 1;
glyphname = quotesingle;
lastChange = "2016-10-23 07:18:35 +0000";
layers = (
{
layerId = "262880E7-CFE1-4BDA-902E-E24798F3240A";
paths = (
{
closed = 1;
nodes = (
"120 697 LINE",
"98 697 LINE",
"98 507 LINE",
"120 507 LINE"
);
}
);
width = 218;
},
{
layerId = "4E2227F3-52E4-4048-A8EE-327B486EF0A4";
width = 296;
}
);
leftMetricsKey = "=n";
rightMetricsKey = "=|n";
unicode = 0027;
},
{
color = 1;
glyphname = semicolon;
lastChange = "2016-10-20 07:13:48 +0000";
layers = (
{
layerId = "262880E7-CFE1-4BDA-902E-E24798F3240A";
paths = (
{
closed = 1;
nodes = (
"136 -60 LINE",
"172 147 LINE",
"150 147 LINE",
"114 -60 LINE"
);
},
{
closed = 1;
nodes = (
"178 370 OFFCURVE",
"197 388 OFFCURVE",
"197 411 CURVE",
"197 433 OFFCURVE",
"178 451 OFFCURVE",
"156 451 CURVE SMOOTH",
"134 451 OFFCURVE",
"115 433 OFFCURVE",
"115 411 CURVE SMOOTH",
"115 388 OFFCURVE",
"133 370 OFFCURVE",
"156 370 CURVE SMOOTH"
);
}
);
width = 304;
},
{
layerId = "4E2227F3-52E4-4048-A8EE-327B486EF0A4";
width = 304;
}
);
unicode = 003B;
},
{
color = 1;
glyphname = slash;
lastChange = "2016-10-20 07:13:51 +0000";
layers = (
{
layerId = "262880E7-CFE1-4BDA-902E-E24798F3240A";
paths = (
{
closed = 1;
nodes = (
"51 0 LINE",
"189 700 LINE",
"167 700 LINE",
"29 0 LINE"
);
}
);
width = 218;
},
{
layerId = "4E2227F3-52E4-4048-A8EE-327B486EF0A4";
width = 218;
}
);
unicode = 002F;
},
{
color = 1;
glyphname = emdash;
lastChange = "2016-10-20 07:13:53 +0000";
layers = (
{
layerId = "262880E7-CFE1-4BDA-902E-E24798F3240A";
paths = (
{
closed = 1;
nodes = (
"506 251 LINE",
"506 272 LINE",
"98 272 LINE",
"98 251 LINE"
);
}
);
width = 604;
},
{
layerId = "4E2227F3-52E4-4048-A8EE-327B486EF0A4";
width = 604;
}
);
unicode = 2014;
},
{
color = 1;
glyphname = hyphen;
lastChange = "2016-10-20 07:13:54 +0000";
layers = (
{
layerId = "262880E7-CFE1-4BDA-902E-E24798F3240A";
paths = (
{
closed = 1;
nodes = (
"356 251 LINE",
"356 272 LINE",
"98 272 LINE",
"98 251 LINE"
);
}
);
width = 454;
},
{
layerId = "4E2227F3-52E4-4048-A8EE-327B486EF0A4";
width = 454;
}
);
unicode = 002D;
},
{
color = 1;
glyphname = dollar;
lastChange = "2016-10-20 07:13:58 +0000";
layers = (
{
layerId = "262880E7-CFE1-4BDA-902E-E24798F3240A";
paths = (
{
closed = 1;
nodes = (
"349 -5 OFFCURVE",
"412 50 OFFCURVE",
"412 149 CURVE SMOOTH",
"412 255 OFFCURVE",
"339 307 OFFCURVE",
"257 361 CURVE SMOOTH",
"176 414 OFFCURVE",
"112 457 OFFCURVE",
"112 550 CURVE SMOOTH",
"112 634 OFFCURVE",
"164 684 OFFCURVE",
"248 684 CURVE SMOOTH",
"332 684 OFFCURVE",
"384 635 OFFCURVE",
"384 548 CURVE SMOOTH",
"384 500 LINE",
"406 500 LINE",
"406 550 LINE SMOOTH",
"406 650 OFFCURVE",
"346 705 OFFCURVE",
"248 705 CURVE SMOOTH",
"150 705 OFFCURVE",
"90 649 OFFCURVE",
"90 553 CURVE SMOOTH",
"90 446 OFFCURVE",
"165 394 OFFCURVE",
"243 342 CURVE SMOOTH",
"320 291 OFFCURVE",
"390 248 OFFCURVE",
"390 152 CURVE SMOOTH",
"390 67 OFFCURVE",
"335 15 OFFCURVE",
"250 15 CURVE SMOOTH",
"165 15 OFFCURVE",
"118 68 OFFCURVE",
"118 154 CURVE SMOOTH",
"118 200 LINE",
"96 200 LINE",
"96 150 LINE SMOOTH",
"96 50 OFFCURVE",
"152 -5 OFFCURVE",
"251 -5 CURVE SMOOTH"
);
},
{
closed = 1;
nodes = (
"265 -88 LINE",
"265 2 LINE",
"243 2 LINE",
"243 -88 LINE"
);
},
{
closed = 1;
nodes = (
"258 702 LINE",
"258 792 LINE",
"236 792 LINE",
"236 702 LINE"
);
}
);
width = 502;
},
{
associatedMasterId = "262880E7-CFE1-4BDA-902E-E24798F3240A";
layerId = "E869EA52-1DFA-43F8-82AD-AF9382669512";
name = "DemiBold{119,100}";
paths = (
{
closed = 1;
nodes = (
"387 -10 OFFCURVE",
"467 63 OFFCURVE",
"467 176 CURVE SMOOTH",
"467 286 OFFCURVE",
"394 347 OFFCURVE",
"295 395 CURVE SMOOTH",
"233 430 OFFCURVE",
"175 457 OFFCURVE",
"175 518 CURVE SMOOTH",
"175 565 OFFCURVE",
"204 598 OFFCURVE",
"256 598 CURVE SMOOTH",
"309 598 OFFCURVE",
"341 564 OFFCURVE",
"341 512 CURVE SMOOTH",
"341 481 LINE",
"465 486 LINE",
"465 512 LINE SMOOTH",
"465 632 OFFCURVE",
"380 710 OFFCURVE",
"253 710 CURVE SMOOTH",
"129 710 OFFCURVE",
"49 636 OFFCURVE",
"49 524 CURVE SMOOTH",
"49 415 OFFCURVE",
"123 353 OFFCURVE",
"221 306 CURVE SMOOTH",
"279 274 OFFCURVE",
"341 245 OFFCURVE",
"341 183 CURVE SMOOTH",
"341 137 OFFCURVE",
"311 103 OFFCURVE",
"259 103 CURVE SMOOTH",
"205 103 OFFCURVE",
"176 136 OFFCURVE",
"176 193 CURVE SMOOTH",
"176 219 LINE",
"46 214 LINE",
"46 188 LINE SMOOTH",
"46 68 OFFCURVE",
"128 -10 OFFCURVE",
"261 -10 CURVE SMOOTH"
);
},
{
closed = 1;
nodes = (
"306 -80 LINE",
"306 40 LINE",
"203 40 LINE",
"203 -80 LINE"
);
},
{
closed = 1;
nodes = (
"309 652 LINE",
"309 777 LINE",
"205 777 LINE",
"205 652 LINE"
);
}
);
width = 513;
},
{
associatedMasterId = "262880E7-CFE1-4BDA-902E-E24798F3240A";
layerId = "471A87D2-9000-4529-8367-8D5BDBB289A2";
name = "DemiBold{119,100}";
paths = (
{
closed = 1;
nodes = (
"387 -10 OFFCURVE",
"467 63 OFFCURVE",
"467 176 CURVE SMOOTH",
"467 286 OFFCURVE",
"394 347 OFFCURVE",
"295 395 CURVE SMOOTH",
"233 430 OFFCURVE",
"175 457 OFFCURVE",
"175 518 CURVE SMOOTH",
"175 565 OFFCURVE",
"204 598 OFFCURVE",
"256 598 CURVE SMOOTH",
"309 598 OFFCURVE",
"341 564 OFFCURVE",
"341 512 CURVE SMOOTH",
"341 481 LINE",
"465 486 LINE",
"465 512 LINE SMOOTH",
"465 632 OFFCURVE",
"380 710 OFFCURVE",
"253 710 CURVE SMOOTH",
"129 710 OFFCURVE",
"49 636 OFFCURVE",
"49 524 CURVE SMOOTH",
"49 415 OFFCURVE",
"123 353 OFFCURVE",
"221 306 CURVE SMOOTH",
"279 274 OFFCURVE",
"341 245 OFFCURVE",
"341 183 CURVE SMOOTH",
"341 137 OFFCURVE",
"311 103 OFFCURVE",
"259 103 CURVE SMOOTH",
"205 103 OFFCURVE",
"176 136 OFFCURVE",
"176 193 CURVE SMOOTH",
"176 219 LINE",
"46 214 LINE",
"46 188 LINE SMOOTH",
"46 68 OFFCURVE",
"128 -10 OFFCURVE",
"261 -10 CURVE SMOOTH"
);
},
{
closed = 1;
nodes = (
"306 -80 LINE",
"306 40 LINE",
"203 40 LINE",
"203 -80 LINE"
);
},
{
closed = 1;
nodes = (
"309 652 LINE",
"309 777 LINE",
"205 777 LINE",
"205 652 LINE"
);
}
);
width = 513;
},
{
layerId = "4E2227F3-52E4-4048-A8EE-327B486EF0A4";
width = 502;
}
);
unicode = 0024;
},
{
color = 1;
glyphname = at;
lastChange = "2016-10-20 07:14:00 +0000";
layers = (
{
layerId = "262880E7-CFE1-4BDA-902E-E24798F3240A";
paths = (
{
closed = 1;
nodes = (
"640 -71 OFFCURVE",
"802 92 OFFCURVE",
"802 290 CURVE SMOOTH",
"802 488 OFFCURVE",
"640 651 OFFCURVE",
"441 651 CURVE SMOOTH",
"242 651 OFFCURVE",
"80 488 OFFCURVE",
"80 290 CURVE SMOOTH",
"80 92 OFFCURVE",
"242 -71 OFFCURVE",
"441 -71 CURVE SMOOTH"
);
},
{
closed = 1;
nodes = (
"254 -50 OFFCURVE",
"102 102 OFFCURVE",
"102 290 CURVE SMOOTH",
"102 478 OFFCURVE",
"254 630 OFFCURVE",
"441 630 CURVE SMOOTH",
"628 630 OFFCURVE",
"780 478 OFFCURVE",
"780 290 CURVE SMOOTH",
"780 102 OFFCURVE",
"628 -50 OFFCURVE",
"441 -50 CURVE SMOOTH"
);
},
{
closed = 1;
nodes = (
"507 119 OFFCURVE",
"551 166 OFFCURVE",
"551 241 CURVE SMOOTH",
"551 383 LINE SMOOTH",
"551 458 OFFCURVE",
"507 505 OFFCURVE",
"435 505 CURVE SMOOTH",
"362 505 OFFCURVE",
"314 459 OFFCURVE",
"314 384 CURVE SMOOTH",
"314 240 LINE SMOOTH",
"314 165 OFFCURVE",
"362 119 OFFCURVE",
"435 119 CURVE SMOOTH"
);
},
{
closed = 1;
nodes = (
"370 135 OFFCURVE",
"331 175 OFFCURVE",
"331 240 CURVE SMOOTH",
"331 384 LINE SMOOTH",
"331 449 OFFCURVE",
"372 489 OFFCURVE",
"435 489 CURVE SMOOTH",
"499 489 OFFCURVE",
"540 449 OFFCURVE",
"540 384 CURVE SMOOTH",
"540 240 LINE SMOOTH",
"540 175 OFFCURVE",
"501 135 OFFCURVE",
"435 135 CURVE SMOOTH"
);
},
{
closed = 1;
nodes = (
"556 124 LINE",
"556 500 LINE",
"540 500 LINE",
"540 124 LINE"
);
}
);
width = 882;
},
{
layerId = "4E2227F3-52E4-4048-A8EE-327B486EF0A4";
width = 882;
}
);
unicode = 0040;
},
{
color = 1;
glyphname = copyright;
lastChange = "2016-10-20 07:14:01 +0000";
layers = (
{
layerId = "262880E7-CFE1-4BDA-902E-E24798F3240A";
paths = (
{
closed = 1;
nodes = (
"640 -71 OFFCURVE",
"802 92 OFFCURVE",
"802 290 CURVE SMOOTH",
"802 488 OFFCURVE",
"640 651 OFFCURVE",
"441 651 CURVE SMOOTH",
"242 651 OFFCURVE",
"80 488 OFFCURVE",
"80 290 CURVE SMOOTH",
"80 92 OFFCURVE",
"242 -71 OFFCURVE",
"441 -71 CURVE SMOOTH"
);
},
{
closed = 1;
nodes = (
"254 -50 OFFCURVE",
"102 102 OFFCURVE",
"102 290 CURVE SMOOTH",
"102 478 OFFCURVE",
"254 630 OFFCURVE",
"441 630 CURVE SMOOTH",
"628 630 OFFCURVE",
"780 478 OFFCURVE",
"780 290 CURVE SMOOTH",
"780 102 OFFCURVE",
"628 -50 OFFCURVE",
"441 -50 CURVE SMOOTH"
);
},
{
closed = 1;
nodes = (
"513 103 OFFCURVE",
"559 148 OFFCURVE",
"559 223 CURVE SMOOTH",
"559 225 LINE",
"543 225 LINE",
"543 223 LINE SMOOTH",
"543 158 OFFCURVE",
"504 118 OFFCURVE",
"438 118 CURVE SMOOTH",
"373 118 OFFCURVE",
"334 158 OFFCURVE",
"334 223 CURVE SMOOTH",
"334 367 LINE SMOOTH",
"334 433 OFFCURVE",
"375 472 OFFCURVE",
"438 472 CURVE SMOOTH",
"502 472 OFFCURVE",
"543 433 OFFCURVE",
"543 367 CURVE SMOOTH",
"543 366 LINE",
"559 366 LINE",
"559 367 LINE SMOOTH",
"559 442 OFFCURVE",
"513 487 OFFCURVE",
"438 487 CURVE SMOOTH",
"364 487 OFFCURVE",
"317 442 OFFCURVE",
"317 367 CURVE SMOOTH",
"317 223 LINE SMOOTH",
"317 148 OFFCURVE",
"364 103 OFFCURVE",
"438 103 CURVE SMOOTH"
);
}
);
width = 882;
},
{
layerId = "4E2227F3-52E4-4048-A8EE-327B486EF0A4";
width = 882;
}
);
unicode = 00A9;
},
{
color = 1;
glyphname = registered;
lastChange = "2016-10-20 07:14:04 +0000";
layers = (
{
layerId = "262880E7-CFE1-4BDA-902E-E24798F3240A";
paths = (
{
closed = 1;
nodes = (
"640 -72 OFFCURVE",
"802 91 OFFCURVE",
"802 289 CURVE SMOOTH",
"802 487 OFFCURVE",
"640 650 OFFCURVE",
"441 650 CURVE SMOOTH",
"242 650 OFFCURVE",
"80 487 OFFCURVE",
"80 289 CURVE SMOOTH",
"80 91 OFFCURVE",
"242 -72 OFFCURVE",
"441 -72 CURVE SMOOTH"
);
},
{
closed = 1;
nodes = (
"529 103 LINE",
"464 295 LINE",
"453 291 LINE",
"516 103 LINE"
);
},
{
closed = 1;
nodes = (
"254 -51 OFFCURVE",
"102 101 OFFCURVE",
"102 289 CURVE SMOOTH",
"102 477 OFFCURVE",
"254 629 OFFCURVE",
"441 629 CURVE SMOOTH",
"628 629 OFFCURVE",
"780 477 OFFCURVE",
"780 289 CURVE SMOOTH",
"780 101 OFFCURVE",
"628 -51 OFFCURVE",
"441 -51 CURVE SMOOTH"
);
},
{
closed = 1;
nodes = (
"380 105 LINE",
"380 489 LINE",
"452 489 LINE SMOOTH",
"508 489 OFFCURVE",
"543 453 OFFCURVE",
"543 394 CURVE SMOOTH",
"543 335 OFFCURVE",
"508 299 OFFCURVE",
"452 299 CURVE SMOOTH",
"377 299 LINE",
"377 287 LINE",
"452 287 LINE SMOOTH",
"515 287 OFFCURVE",
"555 328 OFFCURVE",
"555 394 CURVE SMOOTH",
"555 460 OFFCURVE",
"515 500 OFFCURVE",
"452 500 CURVE SMOOTH",
"367 500 LINE",
"367 105 LINE"
);
}
